<?xml version="1.0" encoding="utf-8"?>

<!DOCTYPE svg PUBLIC "-//W3C//DTD SVG 1.1//EN" "http://www.w3.org/Graphics/SVG/1.1/DTD/svg11.dtd">
<!-- Uploaded to: SVG Repo, www.svgrepo.com, Generator: SVG Repo Mixer Tools -->
<svg height="800px" width="800px" version="1.1" id="_x32_" xmlns="http://www.w3.org/2000/svg" xmlns:xlink="http://www.w3.org/1999/xlink" 
	 viewBox="0 0 512 512"  xml:space="preserve">
<style type="text/css">
	.st0{fill:#000000;}
</style>
<g>
	<path class="st0" d="M475.504,199.888c-31.897-63.168-72.205-95.894-84.65-106.11c-17.172-14.109-31.107-12.578-30.201,1.688
		c2.757,59.34-32.482,96.547-36.653,100.133c-4.288,3.664-7.358,6.133-10.428,0.606c-3.059-5.516-29.744-71.152-29.744-71.152
		l-27.832,34.356l-27.834-34.356c0,0-26.673,65.637-29.744,71.152c-3.06,5.527-6.129,3.058-10.427-0.606
		c-4.162-3.586-39.411-40.793-36.644-100.133c0.916-14.266-13.029-15.797-30.21-1.688c-12.436,10.215-52.743,42.942-84.65,106.11
		C7.437,257.427,0,332.994,0,348.326c0.605,11.644,9.805,17.16,19.326,10.414c6.266-4.442,43.552-23.301,47.84-24.539
		c4.298-1.226,11.032-4.59,14.716,4.602c1.384,3.469,6.412,14.305,7.368,16.566c4.6,11.043,14.014,9.434,18.399,4.602
		c22.074-24.383,41.263-45.902,56.427-13.488c8.888,19.004,15.028,23.914,26.06,11.656c11.607-12.906,17.19-17.172,30.679,7.348
		c13.487,24.539,24.832,52.762,24.832,52.762c3.684,7.961,6.452,9.805,10.35,9.805c3.908,0,6.665-1.844,10.35-9.805
		c0,0,11.354-28.222,24.851-52.762c13.488-24.52,19.063-20.254,30.66-7.348c11.032,12.258,17.172,7.348,26.069-11.656
		c15.154-32.414,34.353-10.894,56.436,13.488c4.375,4.832,13.8,6.441,18.389-4.602c0.946-2.262,5.975-13.098,7.368-16.566
		c3.674-9.191,10.419-5.828,14.707-4.602c4.307,1.238,41.574,20.098,47.85,24.539c9.512,6.746,18.712,1.23,19.325-10.414
		C512,332.994,504.564,257.427,475.504,199.888z"/>
</g>
</svg>