<?xml version="1.0" standalone="no"?>
<!DOCTYPE svg PUBLIC "-//W3C//DTD SVG 20010904//EN"
 "http://www.w3.org/TR/2001/REC-SVG-20010904/DTD/svg10.dtd">
<svg version="1.0" xmlns="http://www.w3.org/2000/svg"
 width="1280.000000pt" height="640.000000pt" viewBox="0 0 1280.000000 640.000000"
 preserveAspectRatio="xMidYMid meet">
<metadata>
Created by potrace 1.15, written by Peter Selinger 2001-2017
</metadata>
<g transform="translate(0.000000,640.000000) scale(0.100000,-0.100000)"
fill="#000000" stroke="none">
<path d="M2385 6299 c-218 -14 -402 -36 -620 -74 -416 -74 -570 -110 -595
-140 -9 -11 -9 -22 0 -50 15 -44 9 -52 -22 -31 -31 22 -67 20 -140 -8 -278
-104 -1008 -562 -1008 -632 0 -32 101 -30 181 4 24 11 66 38 94 61 58 48 78
50 125 16 59 -43 91 -27 50 25 -27 35 -25 40 16 40 31 0 35 -3 34 -22 -3 -38
-1 -39 37 -23 65 28 105 64 101 93 -3 26 -5 27 -68 27 l-65 0 0 30 c0 29 2 30
43 29 42 -1 43 0 36 29 -6 27 -4 28 17 22 38 -12 49 -25 49 -59 0 -41 16 -56
59 -56 52 0 85 20 91 54 5 29 6 28 50 -33 24 -33 48 -61 52 -61 4 0 92 27 195
60 352 114 708 194 830 188 52 -3 56 -4 36 -15 -12 -7 -84 -22 -160 -33 -179
-27 -333 -69 -333 -92 0 -4 8 -8 17 -8 32 0 -7 -27 -147 -101 -168 -88 -272
-158 -375 -250 -72 -64 -126 -99 -154 -99 -6 0 -15 10 -22 21 -10 19 -4 28 52
82 35 33 59 58 54 56 -6 -3 -41 -19 -79 -37 -98 -46 -108 -47 -136 -18 -24 27
-64 34 -75 15 -12 -19 36 -58 180 -146 173 -106 305 -206 417 -317 145 -143
210 -241 241 -360 9 -31 23 -68 31 -81 18 -27 19 -27 151 -45 50 -7 105 -15
123 -18 31 -4 32 -3 32 29 0 35 30 93 96 184 48 67 24 73 -33 9 -102 -115
-112 -123 -164 -138 -67 -20 -101 -13 -97 22 3 26 6 28 70 55 58 25 180 147
214 214 20 40 47 72 89 105 64 52 94 63 75 27 -15 -27 -8 -32 27 -25 46 10 91
43 95 68 4 28 43 36 72 15 19 -14 19 -16 2 -41 -22 -34 -117 -104 -184 -135
-29 -14 -52 -28 -52 -33 0 -19 34 -60 62 -74 20 -10 34 -12 47 -5 49 26 25
-32 -50 -122 -54 -65 -59 -78 -28 -70 21 6 22 5 15 -75 -4 -45 -5 -82 -2 -82
2 0 26 18 51 40 52 45 69 49 85 20 6 -11 15 -20 19 -20 12 0 32 60 25 71 -3 5
-29 9 -58 9 -29 0 -55 3 -59 6 -10 10 18 56 53 89 61 56 110 126 110 155 0 19
12 39 37 64 45 44 59 46 38 7 -9 -18 -11 -32 -5 -36 16 -10 62 20 148 99 135
124 129 89 -9 -51 -115 -117 -197 -218 -187 -229 3 -2 49 37 104 87 54 51 126
112 159 136 56 42 59 43 67 24 4 -12 10 -21 14 -21 3 0 36 14 74 30 38 17 73
30 79 30 15 0 14 -23 -1 -38 -9 -9 -7 -12 8 -12 12 0 86 39 165 86 79 47 165
97 190 110 58 29 151 65 157 60 6 -7 -59 -51 -196 -134 -241 -146 -325 -216
-468 -387 -97 -114 -210 -275 -195 -275 6 0 64 66 129 148 161 199 242 271
242 214 0 -18 -14 -40 -87 -133 -74 -95 -125 -219 -90 -219 22 0 47 28 40 46
-11 30 281 293 303 271 3 -3 1 -15 -6 -26 -12 -24 -6 -41 15 -41 34 0 22 -26
-45 -96 -39 -42 -69 -78 -66 -81 6 -6 54 31 176 135 47 41 157 128 245 194
170 128 532 374 540 366 2 -2 -30 -33 -73 -69 -336 -281 -542 -465 -472 -420
76 48 102 53 81 14 -5 -11 -40 -55 -76 -99 -64 -77 -195 -263 -195 -278 0 -4
7 -3 16 2 19 10 74 1 125 -21 l35 -16 -4 29 c-3 18 4 42 17 63 12 19 21 37 21
41 0 17 -42 2 -84 -30 -53 -40 -69 -30 -41 28 27 53 225 240 427 403 103 83
185 151 184 153 -2 1 -32 -11 -67 -28 -66 -31 -89 -36 -89 -21 0 19 214 179
315 237 l50 28 -59 -64 c-32 -35 -65 -79 -73 -98 -8 -19 -129 -151 -285 -309
-149 -152 -267 -278 -261 -280 6 -2 32 8 58 22 78 41 113 31 92 -27 -11 -33
-22 -35 -37 -8 -15 29 -37 25 -76 -14 -56 -56 -45 -115 49 -249 22 -31 42 -55
44 -53 2 2 0 30 -6 62 -12 65 -3 119 20 119 15 0 16 -18 4 -79 -8 -42 -6 -43
49 -20 17 6 18 4 12 -22 -4 -16 -30 -88 -57 -161 -48 -128 -80 -234 -73 -242
1 -2 14 10 28 25 l25 29 1 -37 c0 -36 -22 -156 -36 -192 -6 -16 -15 -18 -73
-13 -83 6 -206 46 -206 67 0 12 10 14 46 12 36 -3 48 0 53 13 7 20 -7 49 -32
67 -35 24 -45 55 -31 96 13 40 57 110 83 131 19 16 19 12 2 -61 -14 -57 -7
-77 14 -38 6 11 20 20 32 20 16 0 19 4 14 23 -12 39 -19 134 -12 161 5 19 13
26 32 26 13 0 27 7 30 15 7 16 -35 93 -62 116 -16 13 -17 12 -11 -16 4 -16 10
-41 13 -54 6 -20 4 -22 -14 -17 -18 6 -28 -2 -61 -53 -61 -96 -120 -244 -146
-373 -7 -38 -50 -39 -67 -3 -15 33 -24 32 -48 -7 -58 -96 -6 -130 241 -157
175 -19 364 -90 549 -205 74 -46 110 -57 110 -33 0 6 -14 24 -32 39 l-33 26
19 74 c10 40 57 174 103 298 93 245 117 319 109 328 -7 6 -30 -45 -156 -348
-142 -339 -141 -339 -150 -314 -17 43 7 126 122 427 43 115 78 216 76 225 -6
31 -176 -355 -228 -518 -23 -70 -31 -84 -46 -82 -115 18 -121 118 -18 320 48
94 57 132 33 132 -16 0 -78 -94 -100 -150 -11 -30 -25 -84 -30 -120 -12 -79
-24 -110 -43 -110 -46 0 -19 202 41 308 l35 64 -21 22 c-27 29 -26 57 3 142
42 121 236 534 252 534 10 0 -6 -39 -113 -288 -180 -420 -137 -379 102 98 120
238 164 318 165 299 0 -10 -69 -174 -150 -354 -83 -185 -124 -289 -111 -281 5
3 54 86 109 183 171 301 199 337 148 184 -14 -39 -21 -69 -16 -66 5 3 70 104
145 223 217 349 226 348 59 -4 -63 -135 -114 -249 -112 -255 2 -6 39 49 82
123 174 294 206 346 220 357 31 26 3 -42 -130 -317 -53 -109 -109 -230 -126
-270 -65 -161 3 -66 126 174 42 83 90 166 107 185 l30 34 -5 -37 c-5 -39 -46
-144 -139 -358 -30 -69 -60 -147 -66 -175 -18 -73 -88 -248 -171 -425 -71
-152 -99 -248 -69 -238 8 3 17 22 20 42 11 70 44 68 125 -7 58 -53 72 -56 53
-13 -16 35 -1 136 46 299 19 67 35 133 35 147 -1 24 -1 24 -16 5 -8 -11 -37
-90 -64 -176 -45 -139 -69 -189 -95 -189 -19 0 8 110 60 247 69 180 107 289
130 368 22 77 108 253 145 296 l29 34 1 -35 c0 -20 -20 -83 -46 -145 -85 -202
-125 -330 -95 -299 6 5 37 74 71 153 34 79 77 176 97 215 41 82 86 196 79 203
-2 3 -16 -13 -31 -35 -72 -109 -84 -19 -18 127 35 77 54 139 44 146 -5 3 -25
-13 -45 -35 -20 -22 -38 -40 -41 -40 -7 0 63 138 87 173 29 41 39 33 21 -19
-8 -25 -13 -47 -10 -50 2 -3 16 1 31 7 14 7 29 9 33 6 4 -4 -8 -42 -25 -85
-38 -91 -40 -123 -10 -179 22 -41 22 -42 4 -100 -10 -32 -51 -132 -91 -223
-40 -91 -83 -199 -95 -240 -12 -41 -46 -142 -76 -225 -58 -161 -97 -308 -113
-420 -13 -94 -19 -205 -10 -205 9 0 32 110 48 223 21 151 268 843 359 1007 28
50 37 81 42 135 5 58 16 89 58 172 29 56 52 112 52 124 l0 22 -26 -24 c-14
-13 -46 -59 -71 -101 -39 -69 -63 -100 -63 -84 0 16 48 130 78 186 42 76 127
206 142 215 18 11 11 -21 -20 -93 -16 -39 -30 -73 -30 -76 0 -12 22 -5 50 15
21 16 42 21 79 21 l50 -2 12 42 c7 27 29 61 64 97 30 31 56 54 58 51 5 -5
-198 -366 -262 -465 -22 -33 -49 -69 -61 -80 l-23 -20 8 25 c4 14 33 84 65
155 71 160 72 165 57 165 -11 0 -27 -21 -69 -90 -43 -70 -80 -179 -88 -258 -7
-63 -20 -110 -56 -195 -92 -221 -132 -322 -138 -352 l-7 -30 20 25 c11 14 32
54 47 90 62 147 134 291 192 382 34 54 101 168 149 255 125 228 223 373 197
291 -25 -84 -231 -491 -278 -553 -35 -45 -102 -184 -152 -312 -47 -120 -62
-173 -48 -173 15 0 35 39 105 208 45 107 84 184 114 224 25 33 95 160 157 282
113 226 175 333 185 322 9 -9 -35 -121 -95 -241 -51 -102 -55 -116 -63 -210
-4 -55 -12 -122 -18 -150 -5 -27 -8 -51 -6 -53 1 -1 41 70 89 160 105 197 310
542 314 530 1 -5 -64 -155 -147 -333 -171 -372 -216 -478 -242 -569 -10 -36
-61 -171 -115 -300 -125 -305 -154 -385 -134 -364 34 35 200 420 285 663 93
267 416 912 433 863 6 -19 -67 -190 -158 -369 -137 -269 -255 -613 -210 -613
5 0 12 12 16 28 23 109 134 340 134 280 0 -21 -37 -150 -85 -300 -51 -154 -57
-193 -21 -133 25 42 73 161 157 390 80 218 207 465 239 465 24 0 4 -55 -122
-330 -128 -279 -328 -782 -352 -885 -4 -16 -9 -38 -12 -47 -8 -28 12 -21 25 9
7 15 31 77 53 138 22 60 55 137 73 170 18 33 57 125 85 205 78 214 229 540
279 600 32 38 25 11 -29 -131 -28 -72 -53 -143 -57 -159 -5 -25 -3 -28 16 -23
18 5 21 1 21 -30 0 -19 -22 -122 -49 -229 -27 -106 -52 -222 -55 -258 -7 -74
-41 -192 -97 -336 -41 -107 -73 -151 -85 -120 -3 9 1 48 10 88 9 39 14 73 11
76 -2 3 -21 -30 -41 -72 -30 -64 -35 -81 -26 -100 14 -31 4 -73 -53 -224 -47
-126 -51 -142 -36 -142 5 0 34 58 66 129 67 152 85 175 129 168 l32 -5 11 71
c7 40 39 158 73 262 35 109 65 224 71 270 19 158 91 406 106 367 3 -7 -7 -77
-21 -155 -37 -196 -36 -196 -26 -202 22 -14 55 110 95 360 30 193 55 315 65
315 3 0 12 -75 19 -167 6 -93 14 -186 16 -208 4 -33 1 -29 -16 25 -36 115 -39
113 -36 -20 3 -100 8 -131 22 -156 18 -30 18 -36 2 -171 -27 -219 -88 -444
-127 -468 -13 -8 -12 21 4 120 8 44 13 81 11 83 -2 3 -75 -188 -94 -247 -15
-45 -5 -52 24 -18 13 15 26 27 29 27 2 0 2 -28 -1 -61 -6 -59 -5 -61 16 -54
31 10 35 -11 17 -111 -8 -49 -14 -90 -12 -91 5 -5 200 422 259 566 52 128 65
137 66 49 1 -21 5 -38 9 -38 4 0 18 32 31 70 25 79 59 127 84 117 19 -7 37
-67 37 -122 0 -94 -80 -336 -158 -479 -87 -160 -82 -49 7 142 75 162 120 289
128 365 11 104 -36 42 -62 -81 -18 -87 -38 -137 -135 -342 -95 -199 -96 -206
-52 -202 22 3 34 -1 38 -12 3 -9 10 -16 14 -16 16 0 90 125 186 310 52 102
104 196 115 210 l20 25 -7 -30 c-10 -42 -85 -216 -194 -445 -51 -107 -105
-226 -121 -263 -49 -118 -249 -371 -278 -353 -15 10 -58 -40 -143 -164 -105
-155 -169 -240 -179 -240 -18 0 -8 44 22 97 18 30 56 94 85 141 60 94 72 139
23 82 -17 -19 -71 -96 -121 -170 -141 -208 -228 -317 -228 -285 0 25 174 308
259 422 69 93 143 173 159 173 7 0 12 -15 12 -35 0 -19 5 -35 10 -35 6 0 30
30 53 67 68 106 103 124 74 39 -9 -26 -12 -46 -7 -46 8 0 129 186 185 285 l28
50 -64 -62 c-36 -35 -68 -63 -72 -63 -4 0 -5 16 -1 36 10 53 -8 38 -73 -65
-76 -119 -123 -167 -123 -126 0 8 34 81 75 162 41 80 75 154 75 162 -1 27 -55
-46 -122 -164 -115 -203 -329 -504 -441 -619 l-58 -61 6 38 c7 41 6 41 -52 20
-31 -12 -4 49 142 321 32 60 52 107 45 104 -7 -2 -51 -64 -97 -138 -46 -74
-93 -144 -103 -154 -19 -20 -20 -19 -37 20 -25 55 -23 148 3 199 11 22 49 94
83 159 34 65 59 122 55 125 -8 8 -36 -31 -95 -132 -83 -143 -144 -194 -180
-151 -10 13 -11 31 0 101 6 47 10 87 9 89 -2 2 -21 -29 -41 -69 -53 -104 -51
-120 35 -257 87 -139 149 -268 222 -457 l54 -143 -68 0 c-135 0 -228 -39 -266
-111 -28 -56 -5 -129 41 -129 25 0 35 -17 35 -61 0 -37 11 -37 40 3 23 31 23
31 31 10 5 -12 13 -22 19 -22 15 0 105 46 168 86 29 19 54 34 56 34 2 0 11
-44 21 -97 25 -145 25 -146 46 -65 26 104 51 155 105 212 50 54 69 63 58 28
-6 -20 -5 -21 10 -9 9 7 37 44 62 82 41 62 50 70 96 84 76 22 82 21 75 -18 -3
-18 -62 -147 -131 -287 -101 -205 -124 -246 -120 -210 9 69 51 194 100 299 48
102 49 105 34 96 -48 -30 -240 -487 -240 -572 0 -38 24 -14 51 53 25 59 39 69
39 27 0 -25 1 -25 18 -9 10 9 38 58 62 109 133 286 197 403 214 386 3 -3 -8
-45 -24 -94 -34 -96 -34 -121 1 -53 31 62 89 148 100 148 17 0 9 -34 -27 -104
-54 -108 -99 -166 -130 -166 -21 0 -25 -4 -22 -22 2 -12 14 -28 28 -35 19 -9
26 -22 30 -55 l5 -43 72 140 c40 77 90 167 111 200 38 59 78 102 86 94 3 -2
-29 -71 -70 -152 -41 -83 -74 -161 -74 -177 0 -56 70 -48 122 14 17 21 17 21
18 -7 0 -41 -37 -165 -150 -502 -102 -305 -130 -367 -130 -290 0 22 11 87 25
145 14 58 25 121 25 140 -1 32 -2 33 -14 17 -8 -10 -22 -49 -31 -87 -9 -38
-23 -77 -32 -87 -13 -16 -14 -12 -9 43 6 71 50 216 70 233 10 9 16 8 26 -4 20
-24 37 -18 49 16 13 37 15 89 3 89 -5 0 -13 -12 -18 -27 l-10 -28 -18 33 c-9
18 -21 30 -27 27 -13 -9 -35 -60 -81 -195 -75 -221 -77 -263 -17 -417 23 -60
44 -111 48 -115 3 -4 47 19 97 52 101 66 216 119 412 191 331 122 648 300 840
472 45 41 94 77 108 80 44 8 67 -28 79 -127 10 -81 37 -109 99 -109 55 1 71
12 80 55 6 29 8 30 45 25 47 -6 61 6 61 51 0 41 -12 65 -61 119 -43 47 -49 81
-21 106 10 9 63 41 117 70 87 47 105 61 137 110 21 31 62 82 93 114 l54 58 1
-43 c0 -45 18 -89 45 -112 13 -11 22 -6 61 36 41 44 45 46 39 21 -8 -31 -5
-32 61 -12 27 8 61 15 75 15 35 0 61 22 74 61 8 23 18 34 31 34 16 0 19 -7 18
-42 l-1 -42 30 21 c20 15 47 22 78 23 56 1 68 10 122 90 22 33 42 62 44 64 2
3 10 -5 19 -17 22 -32 78 -30 100 3 l16 25 47 -50 c40 -42 53 -50 84 -50 32 0
39 4 50 32 18 42 145 206 187 241 35 30 51 33 79 15 24 -15 45 0 72 53 26 52
25 61 -6 47 -14 -6 -28 -8 -32 -4 -10 9 85 196 186 364 43 73 82 147 85 166 4
18 0 65 -9 105 -21 102 -19 168 10 259 30 95 52 121 61 73 8 -38 17 -39 33 -4
l13 28 27 -33 c29 -36 41 -34 41 9 0 40 10 59 30 59 36 0 37 -68 2 -138 -16
-32 -16 -34 2 -48 29 -21 58 -18 54 6 -2 10 6 26 17 34 18 13 20 25 18 110 -1
53 1 96 5 96 4 0 13 -9 20 -20 16 -27 34 -25 63 6 19 20 31 25 56 21 42 -7 56
10 87 107 24 76 96 200 104 178 2 -6 -13 -61 -32 -124 -19 -62 -38 -129 -41
-148 -6 -31 -5 -33 8 -20 8 8 29 51 47 95 34 85 46 105 63 105 9 0 5 -58 -10
-133 -10 -48 10 -26 73 83 32 54 59 98 61 96 8 -8 -50 -205 -86 -291 -23 -54
-41 -102 -41 -107 0 -20 21 6 61 72 53 89 82 120 113 120 33 0 56 43 56 103 0
49 13 66 96 116 76 46 109 50 143 17 l28 -27 7 25 c7 30 36 48 56 36 12 -7 10
-23 -9 -102 -36 -143 -35 -137 -11 -105 30 38 57 35 69 -8 12 -46 -1 -101 -35
-136 -26 -28 -27 -29 -10 -48 14 -15 34 -21 84 -23 l65 -3 2 -95 c1 -62 9
-127 24 -185 41 -158 90 -223 77 -102 l-6 62 28 -33 c33 -39 42 -34 42 25 0
23 4 43 8 43 11 0 50 -113 58 -167 7 -49 -5 -56 -30 -18 -28 43 -34 28 -20
-47 8 -40 10 -76 6 -80 -9 -9 -135 91 -150 118 -7 12 -11 13 -17 5 -14 -23 6
-61 44 -85 59 -38 81 -71 81 -125 0 -66 -19 -89 -78 -93 -47 -3 -47 -3 -47
-38 0 -31 3 -35 28 -38 15 -2 27 -6 27 -9 0 -21 -38 -77 -61 -89 -21 -10 -40
-39 -70 -102 -82 -170 -186 -301 -230 -287 -22 7 -26 -14 -9 -46 14 -26 35
-24 98 8 68 34 126 96 118 127 -5 22 17 66 33 66 5 0 11 -9 14 -21 8 -29 51
-22 55 8 2 14 11 23 25 25 19 3 22 8 19 46 -2 29 4 56 19 87 28 56 40 58 26 5
-13 -45 -7 -56 22 -41 31 17 32 1 4 -64 -32 -77 -34 -99 -7 -103 34 -5 49 24
47 92 -3 100 5 146 27 146 39 0 73 88 50 130 -8 15 -8 26 -2 32 15 15 47 1 62
-27 18 -34 30 -31 30 8 0 22 -9 43 -30 65 -16 18 -30 43 -30 55 0 22 35 166
42 172 2 2 12 -34 22 -80 19 -88 36 -111 36 -49 0 48 16 77 40 69 10 -3 22 0
26 7 4 6 11 75 15 152 4 78 10 168 13 201 8 74 -6 47 -25 -50 l-14 -70 -7 55
c-13 97 19 270 50 270 4 0 13 -13 19 -30 6 -17 18 -30 26 -30 22 0 29 59 22
174 -13 184 18 84 66 -214 l19 -115 -5 205 c-8 311 14 300 60 -30 14 -102 31
-216 37 -255 l11 -70 13 40 c7 22 13 51 13 65 1 14 5 31 10 39 10 16 20 -29
47 -204 20 -134 28 -154 43 -100 23 87 33 193 27 280 -6 85 -5 89 9 62 20 -35
41 -145 51 -267 l7 -95 17 70 c17 76 26 95 41 95 15 0 10 -90 -11 -214 -21
-121 -18 -150 17 -188 24 -26 29 -22 25 19 -2 27 4 48 20 73 l23 35 3 -37 c4
-46 15 -48 39 -8 9 17 21 30 26 30 4 0 7 -28 5 -62 -2 -43 -7 -62 -15 -61 -35
7 -85 -188 -87 -337 l-1 -105 42 -3 c24 -2 75 6 115 17 96 27 254 43 348 35
41 -3 126 -17 188 -31 62 -13 123 -23 135 -21 l22 3 -22 13 c-13 7 -78 28
-145 46 l-123 34 -6 218 c-8 265 -35 424 -108 638 -17 49 -29 91 -28 93 2 1
16 -11 32 -27 18 -19 39 -30 55 -30 19 0 30 -7 38 -25 20 -43 13 -52 -14 -17
-52 65 -60 25 -12 -58 l32 -55 7 33 c4 18 9 35 12 38 2 3 25 -19 51 -48 25
-29 46 -50 46 -47 0 15 -36 91 -110 229 -122 228 -127 270 -30 270 27 0 55 -3
64 -6 18 -7 21 -41 6 -64 -8 -12 -14 -10 -40 15 l-30 29 0 -30 c0 -58 42 -70
102 -29 l38 25 -6 -27 c-5 -23 2 -36 34 -69 31 -31 45 -58 66 -126 14 -48 42
-110 62 -140 47 -68 73 -127 91 -203 24 -107 41 -135 61 -98 14 24 39 10 57
-32 35 -84 75 -398 75 -588 0 -100 -2 -119 -17 -124 -26 -10 -49 28 -72 124
-30 119 -37 127 -45 54 -4 -34 -10 -61 -14 -61 -4 0 -19 14 -34 32 -15 18 -28
29 -28 23 0 -17 54 -105 138 -224 l81 -113 10 39 c44 164 41 343 -14 668 -33
193 -72 330 -161 565 -98 258 -171 404 -201 408 -29 4 -30 -17 -3 -77 11 -24
19 -46 16 -48 -7 -7 -96 119 -96 137 0 10 10 20 22 23 13 4 31 12 42 20 17 12
17 16 3 43 -30 57 -152 200 -312 363 -214 219 -375 353 -375 313 0 -4 66 -63
146 -132 171 -145 217 -195 238 -256 8 -25 31 -68 51 -95 19 -27 31 -49 26
-49 -4 0 -47 40 -94 89 -62 65 -89 100 -96 129 -13 47 -86 119 -194 191 -59
39 -76 45 -120 46 -47 0 -52 2 -55 23 -2 13 4 34 12 47 21 32 20 47 -5 79 -18
23 -59 53 -59 43 0 -2 11 -18 25 -37 37 -50 33 -60 -24 -60 -54 0 -56 2 -66
76 -7 47 -30 104 -41 104 -3 0 -3 -13 1 -29 5 -24 2 -32 -15 -41 -18 -9 -20
-17 -14 -43 6 -31 6 -31 -17 -15 -15 9 -25 27 -27 46 -2 24 -20 46 -71 94 -64
59 -149 113 -160 102 -3 -2 31 -41 75 -85 88 -90 85 -90 -78 4 -89 51 -135 62
-328 78 -74 6 -139 14 -144 19 -5 5 2 23 17 44 15 19 27 37 27 41 0 3 -24 -12
-52 -34 -164 -123 -833 -435 -1228 -573 -186 -65 -230 -95 -230 -156 0 -32 2
-33 28 -27 22 4 33 0 52 -21 l25 -26 -25 2 c-42 4 -47 1 -69 -35 -42 -72 -72
-28 -79 118 -4 80 -7 99 -22 107 -25 13 -409 -33 -451 -54 -38 -19 -64 -20
-110 -5 -51 17 -54 24 -29 64 12 20 20 38 17 41 -3 3 -23 -4 -46 -16 -48 -24
-53 -51 -20 -94 29 -37 12 -51 -58 -47 -19 1 -23 7 -23 31 0 53 -54 30 -89
-37 -21 -40 -66 -25 -66 22 0 18 -6 20 -57 17 -53 -3 -57 -2 -70 25 -13 26
-18 28 -78 29 -94 1 -95 1 -81 18 13 15 31 20 114 31 35 5 51 13 64 31 15 24
15 27 -6 54 -28 39 -27 57 9 113 39 63 56 68 87 28 13 -17 32 -31 41 -31 9 0
47 30 84 67 l68 67 70 -69 c39 -39 69 -76 68 -84 -2 -8 -21 -20 -43 -28 -22
-7 -44 -18 -48 -22 -18 -18 162 -111 214 -111 16 0 20 5 16 19 -9 36 28 56 99
56 35 0 64 2 64 5 0 3 -4 20 -9 38 -8 26 -7 34 5 39 27 10 54 -26 54 -73 0
-38 3 -43 31 -53 68 -23 169 -6 195 34 21 33 20 92 -5 166 -30 94 -41 178 -41
324 0 114 7 185 36 365 l7 44 -85 -89 c-134 -142 -218 -238 -213 -243 5 -6 19
6 151 121 42 37 81 67 86 67 32 0 -27 -84 -128 -183 -70 -68 -93 -77 -130 -48
-33 26 -70 36 -198 55 -63 10 -103 20 -108 29 -57 103 -279 337 -320 337 -18
0 -4 -20 78 -116 142 -163 214 -283 214 -354 0 -55 -16 -69 -23 -20 -3 23 -8
44 -11 48 -4 3 -20 -4 -36 -17 -17 -12 -34 -20 -39 -17 -4 3 -6 30 -3 61 6 77
-36 162 -118 238 -84 78 -155 111 -224 104 -56 -6 -83 3 -71 23 5 8 21 10 46
7 36 -5 38 -4 28 14 -39 74 -173 -81 -253 -294 -34 -91 -76 -149 -123 -171
-21 -9 -45 -29 -54 -45 -14 -23 -21 -27 -48 -23 -27 4 -31 1 -31 -18 0 -19 -4
-22 -29 -17 -23 5 -32 1 -49 -22 -16 -22 -32 -30 -74 -35 -29 -4 -61 -14 -70
-23 -22 -20 -23 -52 -3 -59 35 -14 1 -20 -64 -12 -152 18 -513 178 -756 336
-216 141 -616 663 -1008 1317 -150 250 -164 271 -173 263 -20 -20 705 -1426
899 -1743 47 -77 116 -144 155 -151 18 -4 39 -15 45 -26 14 -23 68 -53 117
-63 68 -15 100 -36 100 -67 0 -24 7 -32 35 -44 45 -18 95 -18 145 2 35 14 40
20 40 49 0 18 8 39 18 48 26 24 32 21 26 -12 -5 -25 -3 -29 26 -35 18 -3 46
-6 62 -6 62 0 92 -45 48 -72 -27 -17 -25 -29 3 -24 50 10 177 16 177 8 0 -4
-17 -17 -37 -27 l-38 -18 38 -8 c47 -11 80 -32 96 -63 18 -33 55 -48 135 -55
l70 -6 -87 -43 c-48 -24 -87 -47 -87 -53 0 -25 149 29 179 65 12 14 9 22 -13
57 -17 25 -25 47 -21 59 3 11 -3 40 -14 66 -23 52 -27 104 -9 122 18 18 63 15
88 -6 l22 -18 -26 -18 c-36 -23 -24 -36 34 -36 60 0 70 -13 33 -44 l-28 -24
45 -9 c41 -8 45 -11 42 -36 -3 -32 25 -47 87 -47 40 0 50 -6 159 -97 69 -58
100 -66 142 -33 36 28 43 25 24 -13 -38 -73 -97 -127 -139 -127 -15 0 -17 7
-13 45 3 25 3 45 -1 45 -3 0 -26 -32 -51 -70 -24 -39 -48 -70 -53 -70 -4 0 -5
15 -2 33 7 42 -5 59 -41 55 -24 -2 -29 -7 -27 -26 4 -32 -20 -84 -76 -172 -27
-41 -52 -85 -56 -97 -12 -42 24 -25 90 42 36 36 67 65 69 65 3 0 -4 -22 -16
-50 -36 -86 4 -141 44 -61 21 41 26 31 30 -54 l3 -60 45 80 c39 69 45 76 48
54 2 -15 -6 -84 -18 -154 -28 -177 -45 -203 -75 -118 -10 27 -20 55 -23 63 -3
8 -9 -11 -12 -43 -7 -57 -31 -99 -47 -83 -5 4 -7 44 -7 89 l1 81 -19 -52 c-20
-53 -66 -102 -97 -102 -28 0 -39 -19 -34 -61 3 -21 1 -58 -5 -81 -14 -54 -42
-122 -48 -116 -2 3 2 49 10 104 8 54 14 99 12 101 -1 2 -21 -39 -45 -90 -23
-50 -51 -103 -62 -117 l-21 -25 7 50 c3 28 7 59 8 70 2 19 -7 22 -43 14 -17
-4 -17 9 -5 80 17 94 -42 0 -71 -113 -18 -71 -13 -94 12 -58 8 12 19 22 25 22
19 0 7 -39 -30 -97 -39 -60 -71 -93 -58 -60 3 8 9 33 12 54 l6 38 -28 -30
c-15 -17 -47 -53 -71 -80 l-42 -50 39 85 c22 47 43 98 46 113 7 26 6 28 -19
21 -15 -3 -26 -2 -26 4 0 6 29 54 65 107 36 54 65 103 65 111 0 22 -15 24 -48
4 -41 -25 -65 -64 -60 -95 6 -28 -12 -34 -32 -10 -17 20 -7 43 50 110 67 79
66 104 0 70 -16 -8 -44 -36 -62 -62 -38 -56 -41 -95 -12 -166 17 -43 18 -50 4
-75 -13 -22 -23 -27 -55 -27 -36 0 -40 2 -46 33 -6 29 -4 32 17 32 31 0 31 15
-1 36 -20 13 -37 15 -81 9 -61 -7 -62 -4 -21 42 31 35 14 37 -52 8 -75 -34
-91 -50 -66 -69 13 -9 16 -21 13 -40 -4 -22 -1 -29 18 -36 13 -5 24 -14 24
-19 0 -11 -70 -100 -96 -122 -19 -15 -95 -42 -101 -35 -2 2 17 27 42 57 42 49
56 79 37 79 -7 0 -92 -48 -182 -103 -33 -20 -32 -17 20 43 30 36 62 74 70 84
10 13 -22 0 -90 -34 -72 -37 -122 -71 -158 -107 -30 -30 -72 -63 -93 -74 -22
-11 -89 -66 -148 -123 -116 -110 -141 -126 -170 -104 -10 7 -38 28 -62 46 -58
44 -81 41 -234 -35 -156 -77 -259 -137 -423 -245 -151 -100 -194 -117 -250
-100 -20 6 -45 17 -55 25 -16 11 -13 12 22 9 33 -3 59 5 133 41 189 92 321
193 333 255 4 20 10 31 12 25 9 -24 38 -13 152 53 102 61 119 67 180 72 37 2
114 -1 170 -7 123 -15 141 -11 141 32 1 18 8 41 18 52 33 39 121 103 252 181
136 81 172 114 126 114 -14 0 -94 -46 -196 -114 -178 -119 -321 -199 -378
-211 -37 -8 -62 7 -62 36 0 29 -14 30 -54 3 -24 -17 -44 -23 -57 -19 -15 5
-34 -3 -66 -25 -24 -18 -46 -31 -48 -29 -2 2 3 18 10 36 10 23 28 39 67 57 36
17 66 42 94 78 65 84 107 166 110 214 3 53 14 73 59 113 50 44 113 74 145 69
26 -4 28 -2 28 29 0 62 103 197 175 228 32 14 31 14 -35 15 -56 0 -72 4 -89
21 -18 18 -25 19 -45 10 -29 -13 -31 -2 -5 30 25 33 34 65 35 125 2 63 35 111
95 139 33 15 46 16 66 7 35 -16 31 -35 -17 -77 l-43 -36 90 4 c96 5 169 24
224 57 42 26 37 32 -17 18 -52 -13 -88 -5 -95 22 -3 12 -19 26 -36 33 -17 6
-30 16 -28 22 2 5 55 24 118 40 105 28 265 92 255 102 -2 3 -42 -5 -88 -16
-107 -27 -198 -37 -198 -23 0 16 87 54 136 60 26 3 44 10 44 17 0 7 -21 31
-46 55 -83 76 -237 131 -423 150 -58 6 -110 12 -116 14 -5 2 10 14 35 27 l45
24 -70 3 c-123 4 -121 2 -150 151 -18 92 -53 207 -110 371 -25 69 -38 125 -39
163 -1 55 -2 58 -26 55 -23 -3 -24 -1 -21 43 1 26 -4 62 -12 80 -19 47 -66
100 -85 97 -10 -2 -28 19 -51 56 -28 47 -36 73 -39 122 -4 52 -8 63 -24 67
-15 4 -19 12 -16 34 2 21 -2 30 -20 38 -18 8 -21 15 -16 37 5 23 1 29 -20 38
-21 8 -25 14 -20 38 5 23 1 30 -20 40 -22 10 -24 15 -16 37 8 20 7 27 -5 30
-8 3 -22 7 -30 10 -8 2 -15 15 -15 28 0 65 -121 329 -169 370 -57 48 -183 48
-308 2 -85 -32 -188 -93 -345 -202 -68 -47 -144 -97 -171 -111 -45 -24 -48
-24 -61 -7 -11 15 -16 16 -35 5 -30 -16 -39 -5 -16 20 11 12 31 20 52 20 47 0
113 36 234 128 188 142 276 195 388 233 60 21 101 53 101 79 0 23 -46 63 -105
93 -52 26 -92 62 -78 70 31 18 239 -75 275 -123 16 -23 29 -30 47 -28 42 5 53
40 48 153 -5 128 -39 230 -94 287 -82 84 -102 21 -40 -123 45 -105 55 -160 33
-178 -21 -17 -27 -16 -346 99 -470 169 -600 205 -1220 332 l-345 71 -350 3
c-192 1 -413 -2 -490 -7z m-580 -118 c3 -5 -3 -11 -12 -13 -25 -5 -63 3 -63
13 0 12 67 12 75 0z m745 -1 c0 -5 -22 -10 -50 -10 -27 0 -50 5 -50 10 0 6 23
10 50 10 28 0 50 -4 50 -10z m194 1 c7 -10 -29 -18 -61 -13 -13 2 -23 8 -23
13 0 12 77 12 84 0z m325 -27 c47 -10 27 -24 -34 -24 -76 0 -82 20 -9 29 6 0
25 -2 43 -5z m295 -40 c29 -11 17 -24 -23 -24 -38 0 -57 10 -44 24 8 8 46 8
67 0z m381 -44 c4 -6 -15 -10 -50 -10 -35 0 -54 4 -50 10 3 6 26 10 50 10 24
0 47 -4 50 -10z m185 -40 c0 -5 -22 -10 -50 -10 -27 0 -50 5 -50 10 0 6 23 10
50 10 28 0 50 -4 50 -10z m1227 -12 c25 -23 31 -68 10 -68 -19 0 -44 30 -52
63 -9 34 9 36 42 5z m-3663 -14 c29 -11 16 -24 -24 -24 -38 0 -49 8 -33 23 8
9 36 9 57 1z m2630 -9 c56 -8 226 -61 241 -76 5 -5 0 -9 -15 -9 -27 0 -238 53
-282 71 -31 12 -39 33 -10 26 9 -3 39 -8 66 -12z m-2044 -35 c10 -7 -6 -10
-55 -10 -49 0 -65 3 -55 10 8 5 33 10 55 10 22 0 47 -5 55 -10z m2497 -89 c98
-21 193 -57 193 -74 0 -21 -176 28 -291 81 -48 23 -43 23 98 -7z m-3297 10
c-16 -10 -113 -35 -172 -45 -55 -10 -47 9 15 33 52 20 189 30 157 12z m-300
-75 c-35 -32 -162 -63 -144 -35 11 19 87 49 124 49 29 0 32 -2 20 -14z m194
-35 c8 -12 -41 -23 -65 -16 -10 4 -19 11 -19 16 0 12 77 12 84 0z m-134 -30
c0 -17 -103 -61 -143 -61 -49 0 -41 14 27 46 51 24 116 32 116 15z m285 -12
c5 -5 -9 -9 -38 -9 -44 0 -62 12 -34 24 15 6 59 -2 72 -15z m-145 -29 c0 -13
-68 -47 -112 -55 -56 -11 -53 11 5 33 90 35 107 39 107 22z m1785 0 c13 -5
-30 -9 -115 -9 -91 -1 -130 2 -120 9 18 12 207 12 235 0z m-950 -10 c-11 -4
-38 -13 -60 -19 -107 -28 -93 -66 20 -56 39 4 81 9 95 11 50 10 -6 -15 -136
-61 -71 -25 -133 -50 -138 -55 -10 -10 33 -19 109 -22 l50 -3 -105 -39 c-58
-21 -202 -87 -320 -147 -118 -60 -237 -116 -264 -124 -59 -18 -123 -54 -155
-89 -32 -34 -24 -33 52 9 60 33 107 45 107 27 0 -32 -111 -112 -156 -112 -23
0 -104 54 -104 69 0 5 16 30 35 55 19 25 32 46 27 46 -4 0 -26 -11 -49 -24
-56 -32 -97 -41 -111 -23 -9 10 -8 19 4 35 20 29 154 115 297 192 64 34 117
66 117 70 0 4 -12 5 -27 3 l-28 -5 25 21 c33 27 160 76 232 90 35 6 77 7 110
2 29 -5 55 -7 57 -5 3 2 -6 15 -19 29 -23 25 -23 25 -2 25 11 0 44 -5 72 -11
28 -6 54 -8 58 -5 3 4 -7 18 -23 31 -24 20 -27 26 -16 34 12 8 12 12 2 25 -11
13 -11 17 0 20 44 15 279 21 244 6z m2588 -35 c-1 -5 -9 -12 -18 -13 -26 -6
-66 7 -59 19 8 13 80 7 77 -6z m-1588 -35 c-11 -5 -58 -9 -105 -9 -47 0 -94 4
-105 9 -13 5 26 9 105 9 79 0 118 -4 105 -9z m1180 0 c4 -6 -12 -10 -40 -10
-28 0 -44 4 -40 10 3 6 21 10 40 10 19 0 37 -4 40 -10z m710 0 c4 -6 -12 -10
-40 -10 -28 0 -44 4 -40 10 3 6 21 10 40 10 19 0 37 -4 40 -10z m-2466 -26
c17 -4 28 -10 25 -15 -7 -12 -111 -12 -119 0 -10 16 44 25 94 15z m1446 -3
c27 -6 26 -8 -22 -14 -28 -4 -71 -4 -95 0 -38 6 -40 8 -18 14 31 9 96 9 135 0z
m-1350 -81 c4 -6 -22 -10 -69 -10 -44 0 -76 4 -76 10 0 6 30 10 69 10 39 0 73
-4 76 -10z m635 -28 c0 -21 -86 -55 -151 -60 -38 -2 -69 -2 -69 2 0 14 150 64
198 65 12 1 22 -3 22 -7z m-580 -40 c0 -19 -149 -45 -280 -48 -154 -4 -139 4
65 36 132 20 215 25 215 12z m-2405 -12 c11 -17 -15 -50 -39 -50 -34 0 -39 11
-14 37 23 24 43 29 53 13z m1685 -19 c0 -11 -143 -115 -335 -246 -132 -89
-185 -131 -185 -148 0 -12 72 31 183 110 104 74 384 216 467 237 106 27 82 4
-130 -119 -91 -53 -174 -105 -185 -116 l-20 -20 20 7 c11 4 92 41 180 82 199
94 239 101 305 51 79 -61 64 -81 -19 -24 -28 19 -53 35 -56 35 -15 0 -1 -51
25 -89 17 -24 30 -51 30 -58 0 -51 -98 -160 -190 -212 -42 -23 -42 -23 -35 -2
3 11 2 21 -3 21 -16 0 -40 -34 -59 -85 -15 -40 -32 -60 -83 -100 -35 -27 -107
-89 -161 -137 -53 -49 -103 -88 -111 -88 -17 0 -38 41 -38 75 0 13 12 37 26
52 25 27 26 24 7 -24 -6 -16 -4 -16 15 1 12 11 27 36 32 57 13 48 93 156 139
186 19 13 49 23 69 23 28 0 43 8 74 40 48 52 49 78 2 120 l-37 32 47 -7 c49
-8 52 -5 36 26 -12 22 -7 24 21 9 24 -14 24 -48 -1 -80 -48 -62 0 -68 65 -9
46 42 95 127 95 164 0 46 -41 58 -84 24 -32 -25 -33 -36 -3 -35 16 1 23 -5 25
-23 6 -36 -10 -43 -56 -24 -36 14 -48 14 -85 4 -60 -18 -103 -55 -117 -98 -7
-21 -30 -62 -53 -92 -79 -107 -265 -276 -283 -258 -15 15 17 60 112 157 57 59
104 114 104 122 0 9 -9 18 -20 21 -15 4 -20 14 -20 36 0 26 -3 29 -20 23 -30
-11 -128 -85 -195 -148 l-60 -56 90 47 c50 26 110 59 135 73 l45 26 -34 -39
c-19 -22 -67 -75 -106 -118 l-72 -77 -98 106 -99 106 100 97 c136 133 386 294
546 351 64 23 58 22 58 11z m1014 -7 c25 -10 8 -24 -29 -24 -33 0 -51 11 -38
24 8 8 46 8 67 0z m-256 -76 c-5 -14 -111 -56 -143 -57 -19 -1 -19 -1 0 19 36
36 152 66 143 38z m1388 -167 c-20 -22 -171 -101 -193 -101 -30 0 6 27 98 74
97 50 122 57 95 27z m176 -54 c-27 -28 -82 -61 -82 -48 0 16 94 94 98 81 2 -6
-5 -21 -16 -33z m750 -25 c-14 -41 -60 -112 -72 -112 -13 0 13 63 46 113 29
44 41 43 26 -1z m-1980 3 c2 -15 -82 -55 -114 -55 -37 0 -35 16 4 36 62 32
108 40 110 19z m1328 1 c0 -7 -30 -40 -67 -72 -38 -33 -114 -101 -170 -152
-57 -51 -103 -89 -103 -84 0 13 316 322 329 322 6 0 11 -6 11 -14z m-1910 -24
c0 -11 -109 -81 -137 -88 -29 -8 -36 -2 -27 20 7 19 50 43 109 62 49 15 55 16
55 6z m2635 -59 c-22 -53 -68 -120 -72 -106 -8 24 56 143 78 143 5 0 2 -17 -6
-37z m-2075 -7 c0 -2 -30 -22 -68 -44 -37 -22 -76 -49 -86 -61 -19 -21 -19
-21 8 -21 15 0 59 14 98 31 90 39 111 26 42 -25 -69 -51 -108 -60 -175 -40
-55 16 -79 30 -79 45 0 10 94 59 180 95 52 22 80 29 80 20z m1710 -16 c0 -21
-35 -80 -47 -80 -20 0 -15 44 7 68 22 23 40 29 40 12z m-2170 -19 c0 -22 -214
-181 -226 -168 -3 3 4 20 16 37 14 20 21 41 18 59 -4 28 -4 28 45 23 41 -4 52
-1 75 20 35 33 72 48 72 29z m990 2 c0 -5 -16 -19 -35 -32 -36 -24 -38 -41 -5
-41 30 0 34 -20 9 -46 -40 -42 -75 -23 -54 29 5 11 3 17 -6 17 -31 0 -339
-184 -339 -203 0 -13 37 2 157 64 108 56 143 69 143 51 0 -14 -52 -57 -147
-122 -51 -34 -93 -66 -93 -71 0 -11 63 20 135 65 28 18 93 56 145 86 52 29
110 62 128 72 17 11 32 17 32 14 0 -12 -499 -390 -506 -383 -3 2 0 24 5 48 13
56 14 109 2 109 -11 0 -96 -67 -222 -176 -120 -103 -146 -120 -83 -53 68 72
124 147 124 166 0 9 -7 25 -17 35 -15 17 -15 20 8 45 13 14 53 45 89 68 111
73 483 261 523 264 4 1 7 -2 7 -6z m1781 -61 c-13 -25 -79 -74 -92 -70 -6 2
10 23 35 46 49 45 74 55 57 24z m-3051 -153 c0 -50 -39 -90 -102 -103 -43 -10
-35 12 29 76 57 57 73 63 73 27z m1374 -101 c-29 -41 -90 -96 -132 -117 -80
-42 15 88 113 154 49 33 57 18 19 -37z m296 24 c0 -14 -188 -192 -253 -241
-32 -24 -60 -41 -63 -38 -10 9 102 122 205 209 91 75 111 88 111 70z m1304
-44 c-19 -64 -144 -262 -151 -241 -6 17 81 194 112 232 31 36 49 41 39 9z
m-3433 -26 c-13 -25 -79 -74 -93 -70 -6 2 13 25 42 51 54 48 70 54 51 19z
m489 19 c0 -13 -150 -171 -161 -171 -18 0 11 39 81 110 69 70 80 78 80 61z
m3204 -78 c-60 -146 -174 -353 -194 -353 -33 0 31 138 147 316 53 81 71 95 47
37z m-1338 -36 c-6 -27 -86 -136 -86 -118 0 25 85 176 88 158 2 -10 1 -28 -2
-40z m1492 -312 c-10 -65 -27 -98 -58 -115 -45 -24 -51 10 -15 88 59 127 91
138 73 27z m2271 -62 c-41 -146 -50 -198 -56 -348 -8 -223 15 -306 82 -289 25
6 26 5 23 -22 -2 -22 -9 -30 -28 -32 -75 -8 -142 97 -148 233 -5 120 54 386
115 515 35 73 41 44 12 -57z m-4239 -21 c0 -22 -35 -62 -55 -62 -20 0 -19 39
2 62 21 24 53 24 53 0z m4509 -27 c64 -32 72 -45 28 -45 -25 0 -47 10 -77 35
-44 36 -70 45 -70 22 0 -33 120 -97 182 -97 20 0 39 -4 43 -9 9 -16 -25 -28
-110 -41 -98 -14 -152 -29 -166 -46 -8 -10 -4 -12 23 -7 30 4 38 1 61 -26 34
-41 55 -107 39 -123 -8 -8 -13 -7 -17 5 -3 9 -7 24 -10 33 -4 11 -16 15 -47
12 -41 -3 -43 -2 -40 23 3 29 -20 54 -43 45 -8 -3 -15 -15 -15 -26 0 -11 -5
-20 -10 -20 -23 0 -21 32 5 76 23 40 27 55 23 103 -3 31 -1 66 5 78 22 48 110
52 196 8z m-2353 -332 c-6 -180 -6 -196 9 -179 8 11 15 26 15 33 0 7 5 13 11
13 19 0 2 -100 -32 -195 -31 -87 -155 -343 -183 -380 -10 -13 -18 -17 -25 -10
-7 7 1 37 25 95 79 186 113 328 134 545 20 209 31 275 47 275 3 0 2 -89 -1
-197z m615 141 c16 -19 -2 -34 -43 -34 -36 0 -43 15 -16 34 28 20 42 20 59 0z
m233 -76 c47 -35 86 -65 86 -68 0 -8 -123 4 -139 14 -9 6 -11 20 -8 43 6 34 6
34 -27 27 -36 -6 -50 4 -40 30 11 28 40 18 128 -46z m2059 -27 c25 -57 46 -88
76 -111 23 -19 41 -37 41 -42 0 -16 -65 -8 -98 12 -45 28 -92 105 -92 151 0
94 27 91 73 -10z m2056 62 c-20 -23 -158 -86 -196 -88 -21 -2 -48 -16 -80 -45
-53 -46 -182 -133 -518 -348 -210 -134 -356 -235 -635 -440 -69 -50 -147 -104
-175 -118 -27 -15 -73 -44 -101 -65 -28 -22 -59 -39 -68 -39 -9 0 -35 15 -58
33 -36 29 -46 32 -107 32 -84 -1 -156 -21 -180 -51 -11 -13 -24 -54 -31 -91
-18 -104 -46 -159 -94 -185 -18 -10 -19 -7 -12 87 4 53 10 104 13 113 4 9 2
13 -4 9 -14 -9 -49 -161 -57 -250 -7 -72 -38 -168 -60 -186 -11 -9 -12 -2 -8
39 4 45 2 52 -27 81 -29 28 -34 30 -47 17 -24 -23 -30 -91 -10 -107 9 -7 16
-20 16 -27 0 -22 -80 -104 -101 -104 -10 0 -33 18 -50 40 -18 22 -34 38 -36
37 -2 -2 6 -30 17 -62 34 -99 23 -134 -36 -119 -23 6 -24 4 -24 -50 0 -50 -4
-60 -37 -96 -48 -54 -71 -67 -80 -43 -10 26 -24 33 -46 21 -27 -14 -34 -2 -12
22 11 12 31 20 51 20 23 0 37 6 44 19 27 51 -2 65 -67 34 -23 -11 -44 -34 -65
-70 -25 -45 -34 -53 -59 -53 -24 0 -29 -4 -29 -23 0 -59 -79 -243 -133 -311
-16 -20 -29 -27 -40 -23 -26 10 -20 47 18 108 53 86 55 111 12 154 -39 39 -49
42 -71 19 -16 -16 -22 -84 -8 -84 5 0 18 12 31 26 18 20 25 23 37 14 24 -21
16 -48 -26 -81 -23 -18 -38 -39 -36 -46 3 -7 -16 -39 -43 -70 -26 -32 -60 -77
-75 -100 -28 -43 -50 -58 -68 -47 -17 11 2 56 48 117 63 84 58 116 -8 58 -53
-46 -183 -299 -165 -318 4 -4 28 8 53 26 26 18 48 30 50 28 2 -2 -18 -28 -44
-57 l-49 -54 -17 27 c-22 33 -35 88 -36 145 0 23 -3 42 -6 42 -3 0 -20 -11
-36 -25 -24 -20 -37 -25 -59 -20 -31 7 -58 -14 -105 -80 l-21 -30 -53 19 c-43
16 -70 18 -163 13 -62 -3 -133 -12 -159 -20 -43 -13 -48 -13 -48 0 0 18 28 58
97 141 29 35 53 67 53 71 0 5 -17 8 -37 7 -36 -1 -38 1 -41 32 -4 42 12 42 98
1 46 -22 81 -32 117 -33 59 -1 60 -3 21 -79 -11 -22 -18 -40 -16 -42 2 -2 27
12 57 30 44 28 123 55 161 55 5 0 18 -9 28 -20 15 -17 24 -19 44 -11 34 13 98
70 98 86 0 8 9 16 19 20 28 9 218 211 242 256 14 28 33 45 66 61 42 20 53 33
93 107 43 81 70 110 70 77 0 -9 -13 -58 -30 -108 -34 -103 -36 -125 -14 -156
28 -41 41 -27 49 50 13 126 65 252 145 353 49 62 79 121 80 158 0 35 7 34 41
-5 l28 -33 1 36 c0 54 18 96 43 103 31 7 53 49 81 153 13 50 29 101 36 114
l13 23 21 -27 c27 -33 36 -26 36 25 0 24 5 38 13 38 6 0 41 -18 77 -40 75 -46
90 -49 90 -17 0 59 92 184 163 220 27 14 31 13 65 -9 48 -33 87 -29 87 8 1 15
4 30 7 33 3 3 43 0 90 -6 82 -12 85 -12 141 14 57 26 228 148 348 248 107 90
103 87 95 61 -6 -18 -4 -22 13 -22 11 0 32 5 48 11 15 6 54 14 87 18 46 5 62
11 74 29 15 23 14 23 -11 17 -33 -9 -37 15 -7 45 23 23 56 33 96 28 23 -2 29
-7 27 -25 -3 -26 0 -27 28 -13 25 14 24 28 -6 72 -14 20 -25 39 -25 42 0 4 13
6 30 6 39 0 124 33 183 70 35 22 47 36 47 55 0 21 3 24 28 19 35 -7 105 21
216 86 49 29 111 63 140 76 28 13 69 37 92 54 54 42 157 79 218 79 44 1 47 0
35 -16z m-4823 -181 c-20 -134 -35 -191 -46 -171 -13 24 -40 191 -40 247 0 65
23 68 28 4 2 -23 7 -42 11 -42 5 0 19 24 32 53 30 69 35 44 15 -91z m2254 67
c0 -59 -56 -118 -99 -104 -39 12 -24 55 33 93 57 38 66 39 66 11z m410 -19
c22 -22 40 -44 40 -50 0 -28 -106 -44 -136 -19 -25 21 -16 32 22 26 35 -6 36
-5 31 21 -3 15 -9 35 -12 45 -12 29 13 19 55 -23z m-1751 4 c6 -5 -20 -34 -40
-44 -27 -15 -42 11 -23 39 12 16 22 20 37 15 12 -3 24 -8 26 -10z m-3329 -39
c0 -39 -16 -55 -25 -24 -9 26 2 72 15 64 6 -3 10 -21 10 -40z m7354 29 c16
-43 -2 -124 -29 -124 -18 0 -20 46 -3 101 12 42 22 49 32 23z m-4246 -85 c34
-11 62 -25 62 -31 0 -18 -115 -2 -165 22 -94 46 -27 52 103 9z m2110 -51 c14
-14 16 -54 3 -62 -13 -9 -54 41 -48 58 8 19 28 21 45 4z m376 -87 c16 -18 16
-20 -6 -35 -40 -28 -128 -15 -128 19 0 37 104 49 134 16z m2200 -101 c30 -34
36 -47 36 -88 1 -27 11 -71 25 -102 38 -89 20 -79 -51 28 -39 59 -94 170 -94
190 0 27 48 11 84 -28z m-5108 -111 c-36 -120 -109 -306 -126 -323 -7 -7 -10
1 -10 22 0 58 160 470 168 431 1 -8 -13 -67 -32 -130z m4594 36 c0 -52 -16
-79 -22 -37 -2 16 -2 47 0 67 6 48 22 26 22 -30z m95 -237 c-4 -167 -10 -364
-15 -438 -11 -182 -23 -210 -55 -126 -16 42 -16 48 -1 93 28 81 66 488 66 701
0 39 3 72 6 72 4 0 3 -136 -1 -302z m-295 274 c0 -5 -16 -62 -36 -128 -24 -80
-34 -131 -30 -157 4 -36 3 -38 -22 -35 -24 3 -27 7 -25 40 4 61 86 288 104
288 5 0 9 -4 9 -8z m-163 -54 c26 -29 35 -56 22 -64 -14 -8 -25 3 -44 49 -17
42 -8 48 22 15z m-2536 -50 c17 -32 -3 -42 -34 -18 -32 25 -50 56 -42 70 8 13
61 -24 76 -52z m1104 -8 c11 -18 -6 -50 -33 -64 -29 -15 -180 -45 -269 -53
-50 -5 -54 -4 -89 31 -22 22 -33 41 -28 46 5 5 64 12 132 16 67 4 150 12 185
19 81 16 95 17 102 5z m-485 -131 c25 -11 55 -30 67 -41 15 -14 31 -19 52 -16
17 3 31 1 31 -3 0 -3 -18 -23 -40 -43 -34 -31 -47 -36 -88 -36 -47 0 -72 -12
-72 -36 0 -6 11 -15 25 -18 53 -13 10 -39 -86 -52 -64 -9 -89 11 -89 70 0 62
11 73 49 50 45 -26 66 -11 65 47 0 24 -4 56 -8 72 -8 25 -6 27 20 27 16 0 49
-10 74 -21z m2170 -41 c0 -35 -10 -59 -21 -52 -10 6 -12 87 -2 97 10 11 23
-14 23 -45z m930 -40 c0 -41 -39 -4 -55 52 l-7 25 31 -29 c17 -17 31 -38 31
-48z m-2462 26 c3 -18 -1 -21 -23 -16 -21 4 -35 -4 -66 -34 -21 -21 -39 -35
-39 -30 0 14 23 51 49 79 31 34 74 34 79 1z m2818 -13 c38 -23 70 -73 80 -125
8 -46 -4 -43 -57 19 -49 56 -69 87 -69 107 0 23 7 23 46 -1z m-3706 -2 c0 -20
-21 -49 -35 -49 -21 0 -27 -33 -19 -111 6 -59 4 -71 -7 -67 -17 6 -41 113 -33
151 8 36 51 87 75 87 10 0 19 -5 19 -11z m578 -41 c-2 -6 -15 -20 -29 -30 -19
-14 -31 -17 -49 -10 l-25 9 35 22 c38 23 74 28 68 9z m2703 -91 c39 -60 51
-102 27 -95 -12 3 -86 141 -88 161 -1 18 24 -9 61 -66z m-531 -82 c0 -50 -4
-85 -10 -85 -6 0 -10 35 -10 85 0 50 4 85 10 85 6 0 10 -35 10 -85z m883 -4
c41 -62 47 -107 11 -83 -20 12 -54 76 -54 100 0 32 14 27 43 -17z m-70 -104
c20 -44 24 -47 52 -42 l30 5 1 -58 c1 -36 25 -147 64 -292 35 -129 75 -296 91
-370 15 -74 28 -133 29 -130 22 64 -5 254 -59 417 -23 68 -41 127 -41 133 0
19 45 10 59 -11 39 -64 103 -287 119 -420 17 -138 -15 -355 -58 -394 -24 -22
-38 -3 -52 71 -17 91 -21 94 -28 19 -9 -84 -17 -107 -39 -103 -25 5 -40 64
-40 163 -1 97 -11 102 -30 14 -27 -125 -96 -223 -179 -250 -50 -16 -51 -4 -3
45 l43 43 -26 26 c-19 19 -26 37 -26 63 l0 38 29 -28 c22 -22 31 -25 37 -14 5
7 8 148 6 313 -2 260 0 305 14 337 15 34 15 42 -6 145 -14 66 -22 141 -21 193
0 68 -4 97 -24 145 l-24 60 30 -35 c16 -19 40 -56 52 -83z m-469 16 c28 -128
30 -146 15 -141 -28 9 -66 208 -40 208 5 0 16 -30 25 -67z m-3374 -24 c0 -84
-29 -148 -67 -149 -27 0 -3 141 33 198 22 34 34 17 34 -49z m3645 -3 c15 -30
24 -60 20 -65 -21 -35 -65 21 -65 84 0 50 14 44 45 -19z m-5639 -62 c14 -20
14 -26 0 -53 -9 -16 -39 -49 -68 -73 -82 -67 -117 -106 -143 -158 -31 -62
-125 -145 -125 -111 0 14 89 129 179 234 118 137 113 130 102 159 -5 14 -7 28
-5 31 11 10 46 -7 60 -29z m4678 0 c22 -21 18 -134 -4 -134 -14 0 -42 100 -36
125 7 29 18 31 40 9z m-1540 -16 c18 -68 1 -284 -29 -371 -8 -23 -13 -43 -11
-44 2 -2 22 26 44 62 59 94 82 84 32 -15 -24 -46 -49 -68 -85 -72 -25 -3 -30
-8 -37 -43 -21 -104 -225 -454 -283 -485 -31 -16 -69 -64 -110 -133 -32 -56
-83 -110 -96 -102 -21 14 89 198 137 230 47 30 186 249 229 360 l15 40 -31
-35 c-39 -44 -171 -242 -208 -313 -31 -59 -162 -187 -191 -187 -4 0 -7 24 -6
53 0 36 -6 63 -17 81 -22 33 -37 26 -37 -17 l0 -31 -28 33 c-24 29 -29 31 -40
18 -7 -8 -14 -28 -15 -44 -2 -23 2 -29 23 -31 32 -5 50 -20 50 -42 0 -23 -19
-30 -66 -23 -46 6 -84 -19 -110 -70 -17 -34 -83 -107 -96 -107 -19 0 -5 46 43
137 145 277 231 380 226 271 -2 -39 0 -43 23 -46 41 -5 115 50 150 110 29 50
35 85 14 82 -5 -1 -20 -5 -34 -9 -24 -8 -24 -7 -8 16 12 18 25 24 54 24 22 1
45 4 52 9 17 10 15 41 -3 60 -26 25 -34 61 -24 102 27 119 1 96 -153 -130 -4
-6 -10 -7 -14 -3 -12 12 54 132 99 180 31 34 51 47 71 47 59 0 107 41 162 141
l35 64 -4 -47 c-5 -52 -27 -93 -118 -216 -34 -45 -59 -86 -55 -90 4 -4 35 22
69 58 48 51 62 61 65 47 6 -30 -77 -191 -170 -331 -81 -121 -102 -166 -79
-166 25 0 189 218 241 319 35 70 58 149 70 246 15 117 49 217 108 318 l47 82
3 -65 c4 -78 -12 -142 -33 -134 -12 5 -14 -2 -9 -38 6 -40 3 -47 -30 -87 -29
-34 -36 -51 -36 -85 0 -52 29 -87 54 -66 39 32 106 286 106 402 0 42 3 83 6
92 9 23 31 19 38 -6z m-279 -69 c10 -15 -4 -81 -16 -74 -12 8 -12 85 0 85 6 0
13 -5 16 -11z m-206 -148 c10 -7 11 -13 2 -30 -14 -25 -33 -27 -51 -6 -26 31
12 59 49 36z m2316 -45 c13 -20 14 -29 5 -46 -16 -29 -44 -21 -48 13 -7 58 16
74 43 33z m-5161 -133 c-33 -52 -166 -215 -171 -209 -10 10 59 114 120 181 61
67 83 79 51 28z m-264 -87 c0 -8 -48 -85 -106 -172 -113 -170 -150 -234 -135
-234 13 0 67 68 131 165 119 180 167 192 158 39 -3 -60 -2 -62 39 -49 19 5 22
3 17 -10 -9 -22 -46 -35 -102 -35 -59 0 -87 -18 -172 -110 -68 -72 -90 -85
-90 -50 0 27 -14 25 -54 -5 -51 -39 -53 -34 -29 50 3 12 -21 -6 -61 -44 -92
-91 -98 -75 -18 47 41 63 63 78 91 60 27 -17 39 -5 126 128 119 181 205 273
205 220z m1410 5 c0 -15 -126 -127 -159 -140 -80 -34 -37 33 62 96 84 54 97
60 97 44z m4743 -4 c6 -17 -3 -66 -14 -73 -5 -3 -9 15 -9 40 0 44 12 61 23 33z
m-4643 -85 c0 -27 -56 -107 -103 -147 -46 -40 -63 -45 -47 -14 7 11 9 27 6 35
-6 16 -27 10 -68 -18 -16 -11 -28 -16 -28 -11 0 14 133 140 165 157 42 21 75
21 75 -2z m40 -109 c-54 -61 -145 -153 -153 -153 -16 0 15 41 83 110 66 67
119 100 70 43z m1159 -118 c-91 -151 -212 -328 -226 -333 -8 -2 -13 6 -13 22
0 16 18 46 49 81 28 31 53 70 56 85 12 54 176 272 193 256 3 -3 -24 -53 -59
-111z m-1983 -28 c-87 -79 -85 -98 7 -55 37 17 69 29 72 27 2 -3 -1 -22 -7
-42 -13 -43 -8 -53 21 -37 26 13 41 6 41 -21 0 -24 10 -24 55 2 39 24 69 21
106 -10 l24 -20 -37 6 c-26 4 -50 -1 -90 -20 -51 -24 -140 -94 -106 -83 9 2
34 8 54 12 l38 7 -38 -52 c-21 -28 -35 -51 -32 -51 3 0 22 11 42 25 45 31 75
31 125 3 41 -23 47 -33 27 -42 -9 -3 -4 -12 15 -26 15 -12 27 -29 27 -39 0
-20 -53 -84 -198 -243 -57 -62 -112 -129 -123 -149 -25 -50 -159 -212 -386
-469 -278 -314 -279 -314 -271 -186 11 161 158 496 219 496 23 0 23 8 5 78
-17 62 -8 66 41 17 30 -30 35 -41 31 -70 -8 -72 15 -42 132 173 70 128 100
172 100 147 0 -8 -77 -196 -125 -305 l-46 -105 66 65 c81 80 99 111 92 162 -5
37 -4 38 24 38 58 0 179 164 179 243 0 26 -2 29 -26 23 -14 -4 -49 -18 -77
-31 -28 -14 -53 -25 -56 -25 -3 0 26 29 64 65 l70 64 -69 -2 -70 -2 -1 38 c-3
60 -11 64 -125 54 -27 -2 -31 15 -16 62 8 24 7 24 -38 18 -25 -4 -46 -3 -46 2
0 15 62 48 125 67 66 19 65 20 -47 29 -42 4 -84 12 -93 19 -16 11 -16 14 -2
28 12 11 28 14 59 11 39 -4 50 0 111 41 63 44 206 126 217 126 3 0 -26 -29
-64 -63z m1679 -87 c14 -23 6 -99 -15 -140 -22 -43 -103 -130 -122 -130 -5 0
0 14 12 30 21 30 60 127 60 152 1 22 38 98 49 98 5 0 13 -5 16 -10z m-2180
-20 c8 -13 -21 -66 -41 -74 -37 -14 -45 18 -13 58 21 27 43 34 54 16z m1033
-82 c-2 -6 -16 -21 -31 -32 -21 -15 -31 -17 -49 -9 -23 10 -23 10 12 32 38 23
74 28 68 9z m1409 -24 c-7 -44 -38 -107 -54 -112 -27 -8 -5 94 28 135 21 24
32 14 26 -23z m-1648 -3 c10 -7 11 -13 1 -30 -13 -25 -38 -24 -54 2 -17 27 21
48 53 28z m-629 -270 c0 -13 -76 -124 -99 -146 -27 -23 -26 -15 0 38 38 74 99
141 99 108z m97 -176 c-52 -96 -99 -163 -105 -146 -8 24 118 231 140 231 5 0
-11 -38 -35 -85z m243 42 c0 -17 -52 -98 -75 -117 -17 -14 -18 -13 -12 17 12
63 87 148 87 100z m932 -103 c-5 -25 -30 -64 -42 -64 -16 0 -12 43 6 68 18 27
41 24 36 -4z m-734 -130 c-26 -24 -53 -44 -60 -44 -7 0 11 23 40 51 29 28 56
48 60 44 4 -3 -14 -26 -40 -51z"/>
<path d="M1515 5519 c-35 -10 -93 -54 -83 -64 8 -8 103 32 118 50 15 18 1 24
-35 14z"/>
<path d="M1647 5479 c-93 -22 -388 -162 -423 -201 -27 -29 -3 -22 112 34 90
44 115 52 160 52 47 -1 53 1 56 20 2 14 24 32 70 56 95 50 99 57 25 39z"/>
<path d="M2918 4654 c-32 -17 -37 -49 -10 -56 26 -7 83 14 96 35 21 35 -36 49
-86 21z"/>
<path d="M8267 2582 c-20 -22 -23 -76 -4 -70 14 5 47 70 40 81 -7 12 -19 8
-36 -11z"/>
<path d="M8184 2423 c-3 -16 -14 -58 -25 -95 -10 -36 -19 -69 -19 -73 0 -15
20 8 43 50 33 59 49 108 41 128 -10 26 -33 20 -40 -10z"/>
<path d="M8013 2105 c-32 -13 -63 -59 -63 -91 0 -18 16 -17 89 11 24 8 52 13
62 10 14 -5 19 -1 19 12 -1 48 -58 78 -107 58z"/>
<path d="M6738 1386 c-45 -34 -67 -66 -47 -66 14 0 105 87 98 94 -3 4 -26 -9
-51 -28z"/>
<path d="M6967 1352 c-20 -22 -32 -75 -23 -99 6 -14 13 -9 37 30 31 50 38 87
16 87 -8 0 -21 -8 -30 -18z"/>
<path d="M8454 3078 c-10 -15 33 -48 62 -48 42 0 25 29 -28 49 -20 7 -29 7
-34 -1z"/>
<path d="M11816 2544 c10 -40 17 -154 22 -356 5 -209 11 -301 19 -309 17 -17
28 29 28 123 0 78 7 83 19 15 4 -23 20 -50 41 -72 19 -19 35 -45 35 -57 0 -44
17 -52 23 -11 13 75 8 129 -16 174 -32 59 -60 149 -93 294 -29 130 -59 222
-79 244 -10 10 -10 0 1 -45z"/>
<path d="M5506 1948 c-9 -12 -16 -36 -16 -53 l1 -30 24 28 c24 28 34 77 16 77
-6 0 -17 -10 -25 -22z"/>
<path d="M6928 2023 c-25 -30 -29 -53 -11 -60 18 -7 63 38 63 63 0 20 -34 18
-52 -3z"/>
<path d="M6414 1325 c-20 -20 -23 -29 -15 -39 23 -27 90 16 78 49 -9 22 -35
18 -63 -10z"/>
<path d="M5761 696 c-50 -88 -74 -159 -68 -201 4 -26 0 -33 -24 -47 -23 -14
-29 -24 -29 -53 0 -19 4 -35 8 -35 27 0 302 341 302 375 0 4 -9 4 -19 0 -13
-4 -23 0 -29 12 -15 26 -33 6 -109 -123 -37 -63 -71 -114 -75 -114 -10 0 14
64 55 145 40 82 52 115 39 115 -4 0 -28 -34 -51 -74z"/>
<path d="M1285 5605 c-95 -25 -258 -84 -294 -107 -22 -13 -27 -33 -13 -42 22
-13 422 144 422 165 0 13 -15 11 -115 -16z"/>
<path d="M728 5516 c-134 -76 -251 -167 -235 -182 7 -7 97 41 208 110 45 28
93 50 118 53 41 6 47 15 35 47 -10 26 -45 18 -126 -28z"/>
<path d="M795 5416 c-87 -58 -85 -71 2 -28 45 23 84 46 88 52 14 23 -43 8 -90
-24z"/>
<path d="M310 5422 c-69 -34 -43 -79 55 -96 22 -4 51 -10 65 -13 21 -5 17 1
-24 40 -36 34 -47 51 -43 66 6 26 -7 27 -53 3z"/>
<path d="M2523 4635 c-50 -43 -128 -134 -120 -141 3 -3 24 11 46 32 50 45 125
133 119 139 -3 3 -23 -11 -45 -30z"/>
<path d="M1930 4508 c-35 -24 -68 -50 -73 -59 -12 -20 -1 -69 16 -69 16 1 134
156 125 165 -3 3 -34 -14 -68 -37z"/>
<path d="M2543 4506 c-26 -24 -45 -47 -41 -52 9 -8 99 64 106 84 7 23 -17 11
-65 -32z"/>
<path d="M2323 4396 c-26 -24 -45 -47 -42 -50 8 -9 86 49 99 74 17 33 -4 23
-57 -24z"/>
<path d="M3115 4391 c-69 -43 -193 -189 -274 -326 l-42 -70 63 69 c35 38 69
67 76 65 8 -3 0 -29 -23 -84 -19 -44 -35 -82 -35 -84 0 -14 47 44 89 108 61
96 89 152 107 212 9 29 28 61 49 81 52 48 46 64 -10 29z m-65 -161 c-10 -19
-77 -70 -92 -70 -15 0 -8 37 11 54 16 15 58 32 84 35 4 1 3 -8 -3 -19z"/>
<path d="M2802 4315 c-29 -28 -41 -45 -31 -45 17 0 99 66 99 81 0 19 -23 7
-68 -36z"/>
<path d="M4938 4303 c-18 -21 -72 -126 -83 -163 l-7 -25 25 23 c27 25 91 155
85 173 -2 6 -10 3 -20 -8z"/>
<path d="M10947 4264 c-37 -25 -157 -166 -157 -185 0 -12 17 -12 25 1 3 5 15
14 25 20 18 10 19 7 13 -37 -4 -39 -2 -51 13 -65 26 -22 136 -58 198 -64 l51
-5 -45 23 c-25 13 -49 33 -55 45 -13 29 -27 34 -67 23 -52 -15 -57 2 -23 68
40 77 101 142 132 142 l24 0 -21 30 c-27 38 -62 39 -113 4z m-19 -99 c-26 -25
-53 -45 -60 -45 -7 0 8 21 34 45 26 25 53 45 60 45 7 0 -8 -21 -34 -45z"/>
<path d="M2100 4251 c0 -14 76 -64 91 -59 18 6 -32 56 -63 64 -18 4 -28 2 -28
-5z"/>
<path d="M5840 4236 c0 -12 58 -131 74 -151 31 -39 19 34 -15 86 -29 46 -59
79 -59 65z"/>
<path d="M2280 4151 c0 -5 35 -38 78 -74 42 -36 187 -176 322 -311 135 -135
248 -246 252 -246 5 0 8 13 8 28 0 38 17 52 62 52 46 0 49 16 10 53 -35 33
-44 33 -90 2 -27 -19 -38 -22 -40 -12 -1 7 18 68 43 135 47 126 51 142 36 142
-4 0 -23 -35 -42 -77 -19 -43 -47 -92 -62 -110 -30 -34 -64 -43 -73 -19 -5 14
-1 24 51 141 l26 60 -54 -57 c-29 -32 -59 -58 -66 -58 -20 0 -61 48 -61 72 0
13 27 80 60 148 33 68 58 125 56 128 -16 15 -77 -77 -125 -190 l-33 -77 -121
125 c-66 69 -125 123 -131 121 -6 -3 -32 4 -58 13 -27 10 -48 15 -48 11z"/>
<path d="M3994 4052 c-20 -13 -34 -50 -34 -88 0 -33 2 -35 17 -23 17 15 52 85
53 107 0 13 -19 16 -36 4z"/>
<path d="M4876 3961 c-48 -92 -143 -329 -151 -378 l-6 -38 21 32 c39 58 189
438 177 449 -2 2 -21 -27 -41 -65z"/>
<path d="M5950 3993 c0 -12 23 -101 57 -223 l15 -55 19 24 c27 33 24 74 -11
145 -33 65 -80 129 -80 109z"/>
<path d="M5392 3947 c-6 -7 -38 -82 -71 -167 -34 -84 -77 -182 -96 -216 -43
-77 -95 -210 -146 -373 -71 -226 -40 -203 45 34 88 245 108 294 126 310 17 15
20 14 47 -15 l28 -30 -3 73 c-4 65 1 87 37 195 39 116 59 202 49 202 -3 0 -10
-6 -16 -13z"/>
<path d="M4727 3883 c-32 -73 -59 -163 -48 -163 11 0 61 112 76 172 18 65 3
61 -28 -9z"/>
<path d="M3795 3860 c-30 -58 -34 -90 -9 -69 19 16 54 83 54 104 0 30 -20 14
-45 -35z"/>
<path d="M3727 3693 c-27 -37 -42 -75 -61 -153 -36 -143 -35 -140 -26 -140 14
0 136 327 126 337 -2 2 -20 -18 -39 -44z"/>
<path d="M4972 3658 c-38 -93 -86 -247 -79 -254 11 -11 39 47 77 153 41 120
54 173 41 173 -5 0 -23 -33 -39 -72z"/>
<path d="M5601 3669 c-17 -46 -32 -136 -35 -213 -5 -152 21 -77 45 127 11 98
8 131 -10 86z"/>
<path d="M8363 3604 c-8 -21 8 -48 31 -52 24 -5 31 26 11 48 -22 24 -34 25
-42 4z"/>
<path d="M4358 3559 c-65 -141 -152 -399 -135 -399 8 0 101 227 136 333 37
111 36 149 -1 66z"/>
<path d="M6305 3564 c40 -30 197 -62 169 -34 -16 16 -125 50 -158 50 -30 -1
-30 -1 -11 -16z"/>
<path d="M3277 3563 c-23 -22 9 -133 34 -118 10 7 12 85 3 109 -6 16 -26 21
-37 9z"/>
<path d="M4564 3505 c-13 -19 -14 -31 -7 -48 10 -21 11 -21 32 13 11 19 21 41
21 48 0 21 -29 13 -46 -13z"/>
<path d="M4397 3378 c-87 -257 -89 -270 -48 -378 12 -32 20 -80 21 -114 0 -33
4 -56 8 -50 5 5 18 55 31 112 12 57 38 151 56 210 19 59 35 121 34 137 l0 30
-14 -25 c-8 -14 -24 -54 -36 -90 -28 -84 -66 -160 -81 -160 -19 0 -2 95 42
240 22 74 43 154 47 178 11 81 -15 42 -60 -90z"/>
<path d="M3367 3493 c-4 -3 -7 -22 -7 -40 0 -47 24 -38 28 10 3 34 -5 46 -21
30z"/>
<path d="M5472 3408 c-57 -159 -108 -346 -96 -357 8 -8 53 106 88 219 38 128
57 220 46 220 -5 0 -22 -37 -38 -82z"/>
<path d="M5272 3418 c-20 -26 -42 -78 -42 -99 0 -19 2 -20 17 -8 17 15 52 85
53 107 0 6 -4 12 -9 12 -5 0 -13 -6 -19 -12z"/>
<path d="M4824 3284 c-94 -213 -197 -510 -192 -556 4 -33 4 -33 31 24 58 125
206 572 193 585 -3 4 -18 -20 -32 -53z"/>
<path d="M4583 3275 c-47 -111 -116 -363 -128 -470 -15 -135 32 -2 109 305 49
193 55 249 19 165z"/>
<path d="M4870 3144 c-96 -203 -161 -388 -160 -459 l1 -30 20 38 c24 45 64
153 129 342 73 217 79 235 74 235 -3 0 -32 -57 -64 -126z"/>
<path d="M5775 3153 c-69 -143 -138 -310 -133 -325 7 -21 126 224 184 378 38
102 11 74 -51 -53z"/>
<path d="M4938 3068 c-69 -180 -141 -428 -109 -377 17 26 99 253 127 351 15
51 29 99 31 106 3 6 1 12 -4 12 -5 0 -25 -42 -45 -92z"/>
<path d="M7373 3110 c-41 -18 -57 -40 -30 -40 6 0 18 -4 26 -9 12 -8 10 -16
-12 -45 -15 -19 -27 -39 -27 -45 0 -23 42 -9 81 26 53 48 73 87 59 113 -13 25
-43 25 -97 0z"/>
<path d="M6788 3069 l-33 -31 30 7 c47 10 88 55 50 55 -8 0 -29 -14 -47 -31z"/>
<path d="M4036 3054 c-9 -45 -27 -52 -66 -24 -50 36 -43 18 19 -51 l59 -64 4
88 c3 89 -5 114 -16 51z"/>
<path d="M10194 3075 c-6 -16 32 -85 47 -85 13 0 11 14 -7 60 -17 42 -31 50
-40 25z"/>
<path d="M10286 3074 c-3 -9 -6 -59 -5 -112 1 -97 1 -97 16 -62 27 60 30 190
4 190 -5 0 -12 -7 -15 -16z"/>
<path d="M7559 3049 c-86 -61 -182 -169 -166 -186 18 -17 217 169 217 203 0
19 -1 19 -51 -17z"/>
<path d="M4616 3023 c-44 -88 -76 -236 -46 -218 18 11 69 151 85 233 10 48
-11 40 -39 -15z"/>
<path d="M4226 3053 c-9 -10 -7 -83 3 -83 11 0 21 25 21 55 0 25 -12 39 -24
28z"/>
<path d="M6810 3002 c-36 -20 -59 -47 -48 -58 13 -12 54 5 93 40 39 34 39 35
15 36 -14 0 -41 -8 -60 -18z"/>
<path d="M5306 2839 c-118 -245 -184 -426 -167 -456 13 -23 40 17 51 77 6 30
31 104 56 165 125 303 145 357 140 362 -3 3 -39 -63 -80 -148z"/>
<path d="M4295 2961 c-3 -11 -3 -31 1 -46 9 -34 24 -14 24 33 0 35 -15 43 -25
13z"/>
<path d="M7592 2962 c-65 -35 -152 -139 -152 -182 0 -18 28 -11 60 16 51 43
154 185 133 184 -4 -1 -23 -9 -41 -18z"/>
<path d="M10160 2953 c1 -29 36 -81 47 -69 10 10 -19 89 -34 94 -9 2 -13 -6
-13 -25z"/>
<path d="M6560 2941 c-8 -5 -58 -21 -110 -36 -97 -28 -140 -48 -140 -65 0 -18
50 -10 128 20 92 36 186 90 157 90 -11 -1 -27 -5 -35 -9z"/>
<path d="M6803 2914 c-82 -61 -108 -102 -55 -89 36 9 120 63 132 86 28 51 -10
52 -77 3z"/>
<path d="M5222 2901 c-31 -42 -77 -149 -68 -158 14 -14 112 164 104 189 -3 7
-19 -7 -36 -31z"/>
<path d="M4185 2887 c-8 -31 -4 -57 10 -60 14 -3 19 63 6 76 -7 7 -12 2 -16
-16z"/>
<path d="M6921 2863 c-34 -21 -79 -54 -99 -73 -33 -32 -35 -35 -15 -38 12 -2
45 9 73 23 29 15 54 25 56 23 2 -2 -14 -26 -36 -52 -45 -54 -50 -84 -19 -112
31 -28 49 -68 49 -108 0 -30 4 -37 26 -42 39 -10 96 11 134 51 41 42 28 46
-20 5 -30 -26 -80 -41 -80 -24 0 3 11 25 25 49 l26 43 -32 23 -32 22 27 22
c14 11 26 25 26 29 0 5 -16 28 -35 52 -40 48 -43 69 -15 104 40 51 25 52 -59
3z"/>
<path d="M4264 2799 c2 -20 26 -72 52 -115 48 -80 192 -275 258 -349 l35 -40
1 30 c0 17 -5 59 -10 95 -19 116 -27 124 -55 58 l-18 -43 -7 51 c-9 62 -15 74
-40 74 -25 0 -40 29 -40 79 0 47 -12 52 -36 16 -22 -34 -34 -31 -34 9 0 56
-16 86 -45 86 -21 0 -30 9 -46 43 l-19 42 4 -36z"/>
<path d="M4960 2776 c-12 -26 -24 -64 -26 -84 l-5 -37 25 29 c29 35 52 114 37
129 -7 7 -17 -4 -31 -37z"/>
<path d="M5371 2716 c-92 -155 -142 -265 -139 -299 3 -28 17 -4 102 165 104
209 124 282 37 134z"/>
<path d="M9713 2635 c-6 -11 -34 -83 -63 -160 -52 -141 -97 -235 -160 -333
l-34 -54 29 -55 30 -55 53 57 c66 70 143 184 188 278 28 57 34 80 29 110 -4
32 -3 37 14 37 10 0 22 7 25 16 11 28 19 122 12 140 -11 30 -41 -26 -60 -114
-32 -142 -55 -207 -95 -269 -39 -61 -73 -89 -91 -78 -20 12 -9 41 33 93 39 47
44 60 56 139 6 48 21 120 32 160 22 78 23 126 2 88z m-145 -521 c4 -38 -27
-80 -51 -71 -36 14 -6 112 31 105 11 -2 18 -15 20 -34z"/>
<path d="M6688 2624 c-33 -17 -35 -29 -8 -44 25 -13 26 -35 3 -50 -14 -9 -5
-10 40 -6 31 4 57 3 57 0 0 -3 -11 -15 -25 -26 -40 -31 -69 -96 -56 -124 8
-19 18 -24 48 -24 44 0 103 32 103 56 0 17 -24 16 -100 -2 -21 -5 -16 3 28 44
28 28 52 54 52 58 0 5 -21 27 -46 51 -35 31 -45 47 -41 63 6 24 -15 26 -55 4z"/>
<path d="M9536 2618 c-18 -25 -21 -68 -7 -68 15 0 41 42 41 67 0 29 -14 29
-34 1z"/>
<path d="M4896 2582 c-47 -74 -77 -144 -74 -170 3 -27 3 -26 29 13 14 22 31
56 38 75 22 62 39 120 35 120 -2 0 -14 -17 -28 -38z"/>
<path d="M6298 2594 c-54 -16 -59 -26 -23 -50 17 -11 34 -14 57 -9 41 9 94 40
102 60 7 20 -70 19 -136 -1z"/>
<path d="M9277 2548 c-34 -85 -39 -138 -12 -138 25 0 43 42 48 111 7 94 -5
103 -36 27z"/>
<path d="M10343 2587 c-24 -30 -48 -95 -40 -104 17 -16 70 74 65 110 -3 21 -4
21 -25 -6z"/>
<path d="M4775 2567 c-8 -20 -15 -48 -15 -63 0 -26 1 -27 20 -9 24 21 37 82
21 98 -8 8 -15 1 -26 -26z"/>
<path d="M5391 2572 c-10 -15 -36 -63 -56 -105 -23 -49 -49 -87 -71 -103 -37
-29 -131 -152 -218 -286 -64 -99 -90 -154 -77 -163 13 -7 46 38 124 170 80
135 150 231 174 239 30 10 117 149 148 237 16 46 5 51 -24 11z"/>
<path d="M12246 2543 c11 -46 44 -104 55 -97 14 8 3 50 -23 92 -24 39 -41 42
-32 5z"/>
<path d="M10466 2532 c-16 -27 53 -282 78 -282 32 0 49 158 23 210 -9 18 -21
25 -41 25 -22 0 -31 7 -40 30 -8 19 -15 25 -20 17z"/>
<path d="M4636 2493 c-9 -10 -7 -83 3 -83 11 0 21 25 21 55 0 25 -12 39 -24
28z"/>
<path d="M5017 2389 c-41 -63 -96 -154 -122 -204 l-47 -90 34 37 c63 68 229
351 214 365 -3 3 -38 -46 -79 -108z"/>
<path d="M7438 2483 c-20 -22 -48 -96 -48 -125 0 -38 25 -11 48 52 26 74 26
103 0 73z"/>
<path d="M6315 2415 c-33 -32 -31 -45 4 -45 44 0 134 19 146 31 17 18 -25 39
-77 39 -39 0 -54 -5 -73 -25z"/>
<path d="M9901 2366 c-32 -66 -38 -104 -20 -137 16 -30 26 -15 33 51 4 33 13
80 21 105 19 65 3 55 -34 -19z"/>
<path d="M9502 2397 c-22 -23 -31 -77 -12 -77 5 0 19 19 31 41 24 49 13 70
-19 36z"/>
<path d="M6140 2368 c1 -13 9 -39 20 -58 14 -28 20 -32 25 -19 3 9 5 34 3 55
-2 32 -7 40 -25 42 -18 3 -23 -1 -23 -20z"/>
<path d="M10416 2363 c9 -42 37 -96 52 -101 19 -6 14 19 -14 76 -28 56 -48 69
-38 25z"/>
<path d="M5952 2357 c-24 -26 -20 -37 13 -37 27 0 49 24 41 45 -8 22 -29 19
-54 -8z"/>
<path d="M10024 2324 c-19 -38 -24 -58 -16 -66 12 -12 62 67 62 100 0 37 -17
24 -46 -34z"/>
<path d="M6355 2297 c-106 -56 -194 -110 -195 -119 0 -16 30 -7 96 28 108 57
217 135 187 134 -4 0 -44 -20 -88 -43z"/>
<path d="M12380 2324 c-10 -11 -11 -23 -4 -42 13 -37 40 -40 48 -7 13 53 -15
85 -44 49z"/>
<path d="M9272 2311 c-8 -4 -12 -19 -10 -32 2 -19 9 -24 33 -24 33 0 45 25 25
50 -14 17 -29 19 -48 6z"/>
<path d="M6050 2230 c-24 -22 -41 -43 -38 -46 9 -9 40 11 77 50 49 50 16 47
-39 -4z"/>
<path d="M10388 2223 c-20 -22 -48 -85 -48 -109 0 -29 37 12 56 61 19 52 16
74 -8 48z"/>
<path d="M9425 2209 c-11 -17 -49 -28 -57 -16 -9 15 -32 -6 -62 -57 -42 -73
-65 -141 -81 -246 -8 -55 -20 -110 -26 -123 -20 -39 -52 -67 -75 -67 -36 0
-39 33 -8 98 49 100 48 95 18 88 -25 -7 -26 -5 -20 21 4 15 34 85 67 155 34
70 59 133 57 139 -7 21 -87 -100 -150 -228 -50 -101 -62 -135 -68 -197 -9 -73
-23 -114 -61 -168 -35 -49 -27 -58 51 -58 39 0 70 -3 70 -6 0 -4 -9 -22 -21
-40 -18 -29 -18 -35 -5 -40 26 -10 50 0 65 27 12 22 12 29 0 54 -8 17 -25 32
-39 35 -33 8 -37 36 -9 66 29 31 63 31 95 -1 22 -22 25 -31 19 -65 -4 -22 -3
-40 2 -40 4 0 25 14 46 30 22 16 45 26 52 24 7 -3 25 -32 39 -65 14 -32 27
-59 30 -59 2 0 13 31 25 69 24 79 42 101 67 80 12 -9 14 -23 10 -50 -10 -61 0
-64 223 -64 239 0 262 6 346 97 31 33 63 71 72 84 41 63 -36 26 -117 -56 -54
-54 -62 -59 -135 -75 -95 -22 -241 -17 -280 9 -29 19 -30 25 -12 50 12 16 16
17 34 5 28 -17 43 -4 95 75 40 63 47 90 24 99 -32 12 -86 -15 -145 -73 -33
-33 -64 -60 -69 -60 -12 0 -42 34 -42 49 0 9 5 9 21 1 29 -16 33 -8 19 35 -14
44 -9 52 26 36 15 -6 28 -10 31 -8 8 9 -48 37 -87 43 l-41 7 7 -40 c9 -56 -18
-113 -53 -113 -25 0 -25 -2 -20 -47 l6 -48 -30 35 c-39 44 -60 91 -52 118 4
17 -1 24 -21 32 -14 5 -26 11 -26 14 0 2 9 25 20 51 11 26 20 62 20 81 0 44
17 77 100 194 37 52 70 101 74 108 9 15 -10 16 -19 1z"/>
<path d="M10181 2138 c-12 -34 -21 -73 -21 -86 l0 -25 21 27 c11 14 29 26 40
26 11 0 19 7 19 16 0 28 -22 104 -30 104 -5 0 -18 -28 -29 -62z"/>
<path d="M9816 2171 c-40 -44 -2 -69 52 -34 23 14 23 15 6 34 -22 24 -36 24
-58 0z"/>
<path d="M10469 2118 c-35 -48 -63 -107 -55 -116 15 -14 89 82 102 132 10 39
-12 32 -47 -16z"/>
<path d="M9706 2090 c-36 -43 -86 -143 -86 -173 0 -23 16 -47 32 -47 4 0 5 13
2 29 -5 22 4 49 41 115 50 93 56 129 11 76z"/>
<path d="M12257 2053 c-11 -11 -8 -243 3 -243 6 0 10 48 10 125 0 69 -1 125
-3 125 -2 0 -7 -3 -10 -7z"/>
<path d="M11385 2019 c-9 -38 1 -110 18 -133 8 -11 19 -15 30 -10 24 9 22 74
-3 124 -26 52 -37 56 -45 19z"/>
<path d="M11500 2005 c0 -25 2 -45 5 -45 11 0 25 53 20 71 -11 34 -25 20 -25
-26z"/>
<path d="M11316 2019 c-26 -73 -51 -231 -39 -243 4 -4 19 7 34 25 l26 32 7
-51 c4 -29 11 -52 16 -52 15 0 12 96 -5 196 -16 88 -30 121 -39 93z"/>
<path d="M9407 1989 c-9 -6 -29 -33 -44 -62 l-26 -52 41 37 c22 20 59 42 81
48 49 13 52 25 10 34 -39 8 -40 8 -62 -5z"/>
<path d="M10193 1951 c15 -76 57 -134 57 -79 0 21 -45 108 -57 108 -3 0 -3
-13 0 -29z"/>
<path d="M12395 1963 c5 -10 15 -51 24 -91 18 -77 31 -85 31 -19 0 25 -10 57
-25 84 -26 43 -44 59 -30 26z"/>
<path d="M10473 1882 c-14 -34 -33 -62 -40 -62 -8 0 -28 7 -44 16 -28 14 -32
14 -49 -1 -29 -26 -33 -61 -11 -110 18 -40 65 -85 77 -72 12 11 84 189 95 232
17 68 3 67 -28 -3z m-63 -167 c0 -38 -45 3 -55 50 l-7 30 31 -33 c17 -18 31
-39 31 -47z"/>
<path d="M12620 1895 c0 -25 2 -45 5 -45 11 0 25 53 20 71 -11 34 -25 20 -25
-26z"/>
<path d="M11570 1834 c-7 -8 -14 -55 -16 -107 -3 -50 -6 -123 -8 -160 -2 -38
0 -65 4 -60 10 10 76 206 85 250 9 43 0 68 -29 81 -19 9 -27 8 -36 -4z"/>
<path d="M11467 1824 c-11 -11 -8 -84 3 -84 14 0 24 48 14 71 -5 11 -13 17
-17 13z"/>
<path d="M9306 1813 c-12 -12 -6 -59 10 -82 13 -18 22 -21 43 -16 44 11 47 23
15 56 -34 35 -59 51 -68 42z"/>
<path d="M9946 1811 c-9 -14 20 -32 62 -38 53 -7 64 13 18 32 -40 17 -72 19
-80 6z"/>
<path d="M11037 1758 c-31 -41 -67 -109 -67 -125 0 -22 28 -14 49 14 22 27 57
130 48 139 -3 3 -16 -10 -30 -28z"/>
<path d="M12360 1744 c0 -27 4 -43 10 -39 6 3 10 24 10 46 0 21 -4 39 -10 39
-5 0 -10 -21 -10 -46z"/>
<path d="M9828 1739 c-25 -31 -37 -39 -55 -34 -16 4 -32 -5 -63 -33 -43 -42
-51 -68 -22 -76 33 -9 102 -18 102 -12 0 3 -11 16 -25 30 -14 14 -25 33 -25
42 0 13 6 15 34 10 31 -6 37 -3 57 26 30 43 40 49 67 43 25 -6 27 2 8 28 -21
27 -42 20 -78 -24z"/>
<path d="M10867 1773 c-12 -11 -7 -36 14 -82 25 -56 42 -44 28 21 -10 46 -30
74 -42 61z"/>
<path d="M11138 1702 c-36 -63 -80 -110 -120 -127 -23 -9 -28 -15 -18 -19 24
-8 350 -46 396 -46 13 0 10 5 -9 20 -27 22 -47 74 -47 125 l0 30 -40 -46 c-45
-53 -111 -80 -149 -60 -26 15 -26 19 4 102 13 38 21 69 17 69 -4 0 -19 -21
-34 -48z"/>
<path d="M12473 1678 c7 -74 34 -168 47 -168 14 0 12 48 -4 127 -18 84 -25
103 -39 103 -6 0 -8 -22 -4 -62z"/>
<path d="M11240 1664 c0 -48 14 -53 23 -7 6 30 0 53 -14 53 -5 0 -9 -21 -9
-46z"/>
<path d="M12587 1693 c-9 -8 -9 -66 -1 -88 5 -13 8 -14 15 -3 18 27 5 110 -14
91z"/>
<path d="M10281 1643 c30 -80 63 -143 75 -143 23 0 16 44 -15 91 -55 82 -80
104 -60 52z"/>
<path d="M10102 1585 c-26 -54 -30 -125 -6 -125 8 0 22 16 30 35 15 36 20 135
6 135 -4 0 -18 -20 -30 -45z"/>
<path d="M8819 1577 c-41 -27 -99 -102 -99 -127 0 -14 11 -19 53 -24 50 -6
151 5 164 17 3 4 0 14 -7 22 -11 13 -24 15 -67 9 -46 -5 -53 -4 -53 11 0 23
18 55 48 88 33 34 10 37 -39 4z"/>
<path d="M12696 1526 c-8 -33 4 -92 15 -74 11 17 11 85 0 92 -5 3 -12 -5 -15
-18z"/>
<path d="M10196 1523 c-9 -10 -7 -83 3 -83 11 0 21 25 21 55 0 25 -12 39 -24
28z"/>
<path d="M9190 1481 c0 -15 35 -23 65 -15 20 5 23 9 13 15 -18 12 -78 11 -78
0z"/>
<path d="M11520 1406 c0 -35 32 -86 54 -86 21 0 46 34 46 62 0 33 -29 58 -68
58 -30 0 -32 -3 -32 -34z"/>
<path d="M8313 1400 c-49 -20 -12 -50 61 -50 49 0 96 14 96 29 0 25 -111 39
-157 21z"/>
<path d="M5210 1220 c-75 -147 -120 -295 -57 -189 32 55 89 207 84 223 -2 6
-14 -9 -27 -34z"/>
<path d="M7538 1219 l-43 -42 33 -9 c48 -13 82 11 82 57 0 47 -19 45 -72 -6z"/>
<path d="M5422 1028 c-32 -42 -57 -129 -32 -113 11 7 44 68 54 103 8 24 -5 30
-22 10z"/>
<path d="M5669 985 c-26 -58 -37 -121 -20 -111 15 10 47 74 55 113 11 51 -12
50 -35 -2z"/>
<path d="M5449 869 c-40 -62 -119 -312 -119 -374 l0 -30 20 25 c22 29 68 164
100 293 23 95 23 124 -1 86z"/>
<path d="M5347 823 c-39 -44 -101 -249 -68 -229 26 17 96 197 89 232 -3 14 -5
14 -21 -3z"/>
<path d="M5230 775 c0 -25 4 -45 9 -45 12 0 23 48 16 71 -11 34 -25 20 -25
-26z"/>
</g>
</svg>
