<?xml version="1.0" standalone="no"?>
<!DOCTYPE svg PUBLIC "-//W3C//DTD SVG 20010904//EN"
 "http://www.w3.org/TR/2001/REC-SVG-20010904/DTD/svg10.dtd">
<svg version="1.0" xmlns="http://www.w3.org/2000/svg"
 width="1280.000000pt" height="841.000000pt" viewBox="0 0 1280.000000 841.000000"
 preserveAspectRatio="xMidYMid meet">
<metadata>
Created by potrace 1.15, written by Peter Selinger 2001-2017
</metadata>
<g transform="translate(0.000000,841.000000) scale(0.100000,-0.100000)"
fill="#000000" stroke="none">
<path d="M9444 8392 c-49 -23 -97 -86 -126 -164 -19 -54 -24 -59 -82 -86 -108
-51 -171 -120 -250 -277 -41 -82 -48 -90 -83 -100 -36 -10 -38 -13 -44 -61
-10 -76 -16 -89 -57 -107 -27 -12 -47 -32 -72 -74 -49 -84 -69 -104 -91 -93
-32 18 -47 11 -54 -22 -4 -18 -28 -82 -52 -143 -31 -74 -47 -130 -51 -171 l-5
-62 -38 -6 c-21 -3 -40 -10 -43 -14 -4 -7 15 -222 29 -319 l6 -43 -78 0 c-77
-1 -78 -1 -98 -33 -18 -28 -27 -33 -75 -37 l-55 -5 -42 -65 c-30 -46 -54 -70
-80 -82 -33 -14 -42 -27 -66 -87 -34 -81 -84 -144 -138 -171 -59 -31 -69 -27
-69 25 0 30 -5 47 -16 53 -28 16 -113 104 -119 123 -4 11 -15 19 -26 19 -27 0
-60 18 -80 42 -15 19 -13 25 33 102 84 141 113 251 95 365 -29 196 -232 318
-554 333 -29 2 -53 5 -53 8 0 3 42 32 94 63 51 32 111 77 133 100 31 34 53 46
102 60 34 10 93 32 129 51 50 24 74 31 92 25 33 -9 199 -9 275 0 56 8 62 6 91
-19 41 -35 97 -56 209 -79 98 -19 105 -17 105 35 0 20 -12 46 -35 76 -34 43
-39 46 -118 62 -261 51 -525 46 -777 -16 -69 -17 -94 -29 -142 -67 -31 -25
-105 -75 -164 -110 -59 -36 -133 -86 -165 -113 l-57 -47 -83 24 c-45 14 -97
25 -116 25 -32 0 -33 1 -33 41 l0 40 -52 -3 c-52 -3 -52 -4 -61 -41 -13 -55
-113 -144 -124 -111 -25 74 -81 113 -106 73 -18 -29 -34 -23 -56 19 -31 62
-93 108 -234 178 -72 35 -149 79 -171 96 -40 32 -141 57 -236 58 -25 0 -74 10
-110 21 -57 18 -87 20 -245 18 -171 -2 -188 -4 -345 -42 -166 -40 -259 -77
-294 -116 -19 -21 -19 -21 0 -21 10 0 37 -11 59 -23 40 -23 40 -23 82 -5 23
10 89 23 149 29 67 6 125 18 156 31 45 19 53 20 74 7 19 -12 45 -13 136 -6 74
5 152 5 223 -3 185 -19 280 -55 374 -145 31 -28 93 -72 139 -96 l82 -44 -117
-11 c-220 -21 -353 -72 -442 -170 -77 -84 -95 -154 -88 -333 8 -201 39 -281
125 -325 57 -29 99 -62 90 -71 -3 -4 -20 1 -37 9 -43 23 -60 20 -71 -11 -18
-50 -27 -58 -71 -63 -36 -4 -44 -9 -49 -30 -8 -35 -41 -37 -79 -4 -24 20 -39
25 -60 21 -25 -5 -31 -2 -41 23 -19 47 -43 62 -90 58 l-42 -3 -47 82 c-25 45
-51 83 -57 83 -6 0 -19 -9 -29 -20 -23 -25 -31 -25 -38 0 -8 29 -52 46 -86 33
-27 -10 -30 -8 -71 51 -23 33 -62 90 -86 125 -25 35 -52 90 -61 122 -12 45
-21 59 -37 61 -17 2 -22 11 -24 43 -1 22 -9 93 -17 157 -9 64 -13 127 -10 140
5 19 1 27 -20 36 -14 6 -29 22 -34 34 -5 13 -15 38 -21 56 -15 38 -41 42 -63
10 -15 -21 -16 -13 -16 119 l-1 141 -45 22 c-42 20 -78 54 -88 83 -3 8 -10 7
-24 -5 -19 -17 -19 -16 -31 40 -18 85 -74 171 -201 306 -122 130 -203 237
-221 292 -11 33 -13 34 -65 34 -75 0 -85 -6 -85 -49 0 -28 9 -48 36 -79 53
-63 44 -72 -70 -72 -54 0 -98 -4 -101 -10 -4 -6 -1 -26 5 -46 16 -48 56 -64
158 -64 102 0 133 -12 177 -66 35 -42 39 -44 89 -44 l53 0 49 -112 c40 -92 49
-123 49 -170 -1 -31 2 -55 6 -52 12 7 39 -8 50 -27 9 -18 7 -19 -30 -13 l-39
6 -10 -53 c-6 -30 -14 -73 -17 -96 -4 -23 -15 -58 -25 -79 l-19 -36 38 -57
c35 -51 38 -62 34 -103 -4 -37 -1 -54 17 -83 18 -30 22 -46 17 -85 -5 -42 -3
-50 16 -63 17 -11 21 -22 19 -56 -3 -39 1 -46 58 -105 35 -37 60 -71 60 -84 0
-23 14 -29 25 -12 13 21 25 -3 19 -39 l-6 -37 86 -44 c47 -24 88 -50 92 -59 4
-9 10 -59 13 -110 l6 -95 89 -51 c49 -28 107 -71 130 -96 l41 -44 -27 -3 c-53
-6 -475 187 -1168 535 -417 210 -590 290 -835 388 -328 132 -637 223 -962 284
-132 25 -172 37 -243 73 -86 44 -206 79 -335 99 -38 6 -219 13 -402 16 -316 5
-336 4 -401 -16 -115 -34 -225 -120 -272 -210 -12 -24 -9 -83 11 -191 46 -245
203 -526 424 -760 55 -58 135 -148 177 -200 250 -309 315 -385 410 -475 57
-56 139 -124 182 -153 114 -76 180 -106 442 -202 71 -26 214 -43 309 -35 44 3
166 17 270 31 359 47 513 41 623 -22 26 -14 76 -34 112 -44 36 -10 103 -32
150 -49 47 -17 98 -31 113 -31 15 0 41 -7 56 -15 16 -8 71 -22 122 -31 52 -9
100 -20 106 -23 7 -4 -99 -28 -235 -55 -291 -57 -484 -104 -604 -145 -190 -65
-341 -161 -440 -279 -44 -53 -48 -61 -48 -112 -1 -178 143 -434 288 -513 103
-56 151 -62 559 -62 204 0 374 -3 378 -7 14 -14 -19 -51 -84 -92 -104 -67
-137 -121 -90 -147 12 -6 37 -9 55 -6 52 9 50 -10 -5 -60 -43 -39 -50 -50 -44
-72 8 -36 22 -51 47 -51 11 0 27 -4 35 -9 21 -14 -42 -130 -157 -288 -90 -124
-99 -133 -130 -133 -45 0 -137 -34 -179 -65 -42 -33 -100 -119 -109 -161 -5
-26 -1 -35 26 -58 32 -26 33 -26 59 -9 90 60 166 78 206 49 15 -11 19 -24 16
-56 -5 -75 30 -120 93 -120 41 0 51 46 48 214 l-3 150 32 65 c25 51 64 98 172
208 78 79 148 143 158 143 10 0 35 -11 55 -25 41 -28 46 -27 113 31 45 39 91
121 91 163 0 13 11 37 25 53 55 65 90 174 83 261 l-3 42 165 27 c91 15 226 37
300 49 l135 23 75 75 c42 42 132 150 200 241 68 91 159 199 201 240 76 75 201
159 207 140 2 -5 16 -10 31 -10 37 0 43 -8 26 -34 -8 -11 -15 -33 -15 -48 0
-27 2 -28 48 -28 57 0 69 -8 42 -27 -22 -16 -28 -71 -7 -78 6 -2 29 -6 49 -10
48 -8 112 -57 155 -119 l34 -50 -26 -20 c-15 -13 -37 -51 -53 -96 l-28 -75
-44 -3 c-81 -4 -90 -9 -90 -45 1 -17 7 -43 15 -57 29 -51 16 -110 -24 -110
-47 0 -126 -29 -150 -54 -22 -24 -24 -42 -10 -96 8 -30 -57 -24 -117 11 -55
31 -57 31 -85 15 -26 -16 -42 -16 -101 0 -12 4 -23 -6 -35 -32 -16 -32 -23
-37 -57 -40 -79 -7 -152 -100 -144 -184 3 -35 1 -39 -29 -49 -17 -7 -44 -26
-60 -44 -21 -25 -54 -42 -132 -69 -56 -20 -128 -52 -159 -70 -59 -35 -172
-140 -172 -160 0 -6 9 -21 20 -33 l21 -22 -57 -37 -56 -38 4 -50 c5 -49 4 -52
-38 -93 -24 -23 -44 -47 -44 -54 0 -21 57 -71 81 -71 l23 0 -26 -27 c-32 -34
-42 -71 -34 -118 5 -26 12 -35 27 -35 11 0 29 -5 40 -11 19 -10 19 -10 -1 -36
-35 -45 -24 -73 33 -87 48 -11 28 -37 -90 -116 -62 -41 -127 -88 -144 -105
-34 -33 -79 -118 -79 -151 0 -21 35 -44 65 -44 27 0 14 -15 -67 -75 -44 -33
-87 -73 -97 -88 -16 -28 -16 -29 22 -59 20 -16 37 -35 37 -41 0 -6 -12 -28
-26 -49 -23 -33 -25 -41 -15 -69 18 -51 13 -79 -25 -158 -62 -127 -57 -165 20
-176 37 -6 44 -11 52 -38 7 -24 20 -37 51 -52 l42 -20 1 -58 c0 -56 1 -58 35
-74 19 -9 35 -19 35 -22 4 -205 18 -270 84 -385 l33 -58 -28 -82 c-29 -84 -49
-185 -49 -246 0 -35 1 -35 74 -58 40 -13 86 -22 102 -20 l29 3 5 102 c3 56 8
104 11 108 4 3 38 -11 77 -31 49 -25 89 -39 126 -42 69 -6 96 1 135 34 25 21
30 31 25 52 -19 79 -54 107 -184 147 -111 35 -156 65 -180 119 -10 24 -30 51
-44 62 -33 24 -57 89 -63 176 l-6 67 54 3 54 3 5 40 5 40 46 -3 c46 -4 47 -3
68 40 11 25 21 63 21 85 0 39 2 41 35 47 55 11 68 40 76 177 4 65 12 126 18
136 8 14 23 18 73 18 l63 0 3 51 c2 29 -4 82 -13 119 -15 65 -15 69 3 89 35
39 34 45 -21 154 -57 111 -107 229 -125 296 l-11 39 22 -20 c57 -52 92 -55
107 -9 11 35 26 46 60 46 17 0 20 9 22 73 l3 72 44 11 c56 13 60 25 64 163 2
85 -1 112 -15 138 -17 31 -17 33 2 65 13 23 22 68 30 148 13 131 36 192 81
216 28 14 32 13 56 -6 28 -22 76 -26 119 -10 15 6 28 9 31 7 2 -2 -11 -62 -28
-133 -38 -155 -37 -248 1 -326 23 -46 23 -48 5 -61 -17 -13 -18 -25 -12 -153
13 -298 66 -457 177 -530 38 -25 48 -27 192 -31 296 -9 293 -9 312 10 10 9 23
17 31 17 7 0 23 9 36 20 l24 20 -29 25 c-32 30 -33 28 17 48 29 13 37 21 37
42 0 18 -7 28 -24 35 -33 12 -40 27 -16 33 24 6 25 21 5 77 -8 23 -15 62 -15
85 0 26 -6 47 -16 55 -9 8 -61 17 -123 21 -97 7 -192 31 -191 48 0 3 12 18 25
34 21 24 31 27 84 27 67 0 142 25 202 68 41 28 48 42 25 42 -8 0 -27 5 -41 10
-26 10 -27 11 -11 35 18 28 18 29 -31 93 -18 24 -33 48 -33 53 0 5 27 9 60 9
70 0 84 15 74 80 -6 38 -4 44 32 81 21 21 41 39 45 39 3 0 9 -19 13 -42 9 -53
21 -68 58 -68 21 0 43 13 82 50 55 52 80 61 90 34 9 -24 9 -24 -28 -24 -39 0
-46 -11 -35 -58 9 -43 11 -45 60 -51 l42 -6 0 -58 c0 -52 -3 -60 -24 -71 -51
-25 -25 -106 53 -164 l48 -36 -26 -27 c-67 -70 0 -103 249 -121 108 -8 151
-14 131 -19 -46 -12 -241 -29 -271 -24 -16 2 -54 7 -85 10 -57 5 -58 5 -58
-21 0 -18 -13 -38 -40 -63 -51 -46 -56 -81 -15 -93 17 -5 42 -6 58 -4 30 6 33
0 12 -28 -19 -26 -18 -82 4 -181 l17 -80 64 -16 c40 -11 70 -25 80 -40 15 -19
23 -21 61 -15 24 4 64 16 89 27 40 18 65 20 235 19 437 -2 736 46 947 151 l77
38 26 -30 c33 -39 33 -69 1 -69 -28 0 -42 -14 -51 -53 -7 -25 -10 -27 -64 -27
-35 0 -85 -10 -127 -24 -254 -89 -611 -122 -1029 -97 -156 10 -210 17 -244 32
-107 47 -137 13 -101 -113 12 -43 20 -91 18 -107 -4 -26 0 -32 24 -41 15 -5
42 -15 58 -21 35 -13 38 -34 9 -68 -18 -22 -23 -24 -53 -13 -18 7 -46 12 -63
12 -33 0 -43 -17 -43 -72 0 -23 6 -29 40 -39 35 -11 40 -16 40 -41 0 -60 12
-68 103 -68 56 0 122 -10 207 -30 166 -39 251 -39 446 0 82 17 189 33 239 37
75 5 103 13 173 45 85 39 184 68 236 68 39 0 86 38 131 105 78 118 115 259
115 438 0 107 1 115 24 136 34 32 74 128 91 217 15 78 20 376 6 423 -4 17 -19
28 -46 38 -51 17 -65 37 -65 90 0 43 7 52 26 33 15 -15 91 -17 106 -2 18 18
14 99 -10 176 -23 70 -28 131 -13 140 4 3 23 -6 41 -19 44 -33 86 -33 94 -2 3
13 21 32 42 43 51 26 61 58 29 88 -30 28 -33 41 -5 26 14 -7 33 -7 65 1 52 13
53 13 56 -21 5 -57 -2 -92 -23 -113 -23 -23 -23 -27 -22 -267 1 -259 7 -306
48 -389 30 -58 51 -78 59 -57 3 8 19 22 36 30 l29 16 7 -39 c6 -37 8 -39 57
-47 l50 -9 29 -73 c16 -40 27 -77 25 -81 -3 -4 8 -15 25 -25 16 -9 29 -21 29
-25 0 -22 -36 -106 -99 -230 -38 -75 -76 -160 -84 -188 l-16 -53 26 -20 c14
-11 36 -20 50 -20 37 0 39 -26 6 -106 -30 -73 -30 -73 -11 -91 11 -10 38 -48
60 -85 22 -38 44 -68 49 -68 6 0 5 -8 -1 -19 -20 -38 -11 -87 23 -138 26 -38
32 -57 29 -84 -3 -27 4 -45 31 -84 53 -78 67 -111 67 -160 0 -40 3 -47 26 -55
14 -6 38 -10 54 -10 30 0 47 -14 30 -25 -20 -13 -40 -78 -50 -169 -12 -96 -35
-191 -49 -200 -4 -3 -21 -2 -37 3 -16 4 -39 5 -51 0 -34 -13 -79 -88 -117
-199 -34 -95 -35 -105 -21 -126 16 -24 81 -43 94 -28 4 5 13 27 20 49 30 90
87 135 169 135 49 0 49 0 56 -38 3 -20 6 -67 6 -105 0 -65 1 -68 33 -87 44
-27 73 -25 93 5 14 22 16 43 10 148 -7 108 -10 125 -30 147 -47 51 -58 135
-31 246 13 57 62 174 72 174 2 0 17 -7 32 -14 41 -22 69 -10 81 33 42 158 51
257 29 321 -13 36 0 54 34 46 13 -3 17 2 17 25 0 23 6 32 27 40 91 34 100 118
33 285 -16 42 -30 78 -30 80 0 3 10 5 23 4 57 -5 67 -1 67 28 0 15 -11 44 -25
63 l-26 34 46 3 c30 2 48 9 52 18 10 27 -16 90 -61 152 -59 80 -76 114 -76
155 0 28 -7 39 -37 60 -21 15 -69 60 -106 102 -38 41 -86 84 -107 95 -36 18
-39 23 -47 82 l-8 63 33 6 c45 8 48 13 34 64 -18 68 -18 69 39 62 51 -6 89 4
89 24 0 6 -23 36 -50 66 -28 30 -85 108 -127 172 -43 64 -95 140 -117 169
l-39 53 22 20 c33 31 26 55 -29 96 -49 37 -50 38 -50 93 0 105 -38 139 -243
214 -81 30 -163 65 -182 77 -33 23 -35 27 -35 80 0 45 -4 59 -22 76 -30 27
-66 45 -77 39 -5 -3 -9 13 -9 36 -1 51 -14 60 -74 55 -41 -3 -48 -1 -48 14 0
23 -29 39 -72 39 -22 0 -52 -13 -92 -40 -35 -24 -70 -40 -87 -40 -26 0 -29 -4
-29 -31 0 -24 -4 -30 -17 -27 -22 4 -29 48 -13 78 15 28 5 40 -90 103 -74 49
-150 114 -150 129 0 4 26 8 58 10 54 3 57 4 60 31 3 24 -6 37 -53 80 -40 38
-57 61 -59 82 -2 24 -11 34 -44 50 -65 32 -67 38 -33 73 23 23 31 40 31 67 0
20 4 34 9 30 6 -3 28 -2 51 1 l41 7 -6 38 -7 38 30 -11 c16 -6 37 -8 47 -4 15
5 17 14 11 66 -6 53 -5 60 10 60 9 0 45 29 79 65 35 36 68 65 75 65 12 0 135
-122 555 -551 152 -156 236 -233 305 -282 109 -76 243 -146 345 -180 l70 -24
6 -64 c4 -36 16 -97 28 -136 19 -64 24 -71 51 -77 22 -4 34 -15 47 -43 25 -55
43 -73 72 -73 14 0 45 -7 68 -16 35 -14 49 -15 70 -5 14 6 27 10 28 9 2 -2 25
-48 53 -103 27 -55 79 -151 115 -213 l65 -114 -20 -71 c-11 -40 -30 -97 -42
-128 l-22 -56 23 -21 c31 -27 30 -44 -2 -36 -32 8 -33 -9 0 -41 25 -26 70 -31
125 -16 25 7 25 8 25 118 0 62 5 116 10 122 7 7 43 -6 112 -39 l101 -50 31 31
c17 17 31 35 31 40 0 18 -56 92 -106 142 -54 53 -97 79 -161 96 -38 10 -43 16
-54 54 -6 23 -39 116 -74 207 -86 227 -83 206 -36 214 94 15 108 130 26 212
-14 14 -25 27 -23 28 2 2 37 8 78 15 197 33 436 103 784 232 189 71 199 76
216 110 10 19 37 52 59 72 33 30 42 46 52 97 26 132 -10 265 -101 378 -58 72
-222 207 -288 237 -81 37 -223 79 -426 125 -99 23 -222 55 -274 72 l-95 30
-16 -20 c-16 -21 -16 -21 -33 3 l-18 23 68 7 c114 11 211 25 367 55 l150 29
56 54 c72 70 254 170 280 154 9 -6 15 -15 13 -21 -5 -14 257 -142 321 -157 79
-19 334 -15 445 6 195 36 383 114 517 213 80 59 136 122 270 302 40 52 106
133 148 180 96 107 196 239 268 355 31 50 74 104 96 122 28 23 46 51 64 99 15
36 53 112 86 168 33 55 70 123 81 149 49 110 33 221 -50 366 -51 89 -60 98
-163 140 -174 73 -519 73 -907 0 -194 -37 -343 -80 -767 -220 -232 -76 -427
-139 -434 -139 -20 0 -121 -47 -499 -230 -456 -222 -651 -305 -865 -370 -67
-20 -173 -64 -675 -280 -224 -97 -455 -183 -472 -178 -5 2 0 16 12 31 15 18
31 27 51 27 19 0 42 12 66 33 39 35 213 153 295 201 35 21 58 27 87 24 39 -3
39 -3 95 82 42 63 56 93 56 120 0 57 38 120 104 170 134 103 162 128 184 160
23 34 29 84 12 95 -16 10 -12 47 10 82 11 18 47 67 80 109 81 102 103 145 90
179 -14 38 -12 118 5 208 8 43 15 108 15 143 l0 64 -30 0 c-27 0 -30 3 -30 30
0 44 35 130 72 174 42 51 222 194 273 217 48 22 94 24 138 5 27 -11 34 -11 45
0 8 9 36 14 77 14 54 0 66 3 75 20 6 12 8 30 5 40 -10 32 -41 42 -105 35 -54
-6 -58 -5 -79 21 -28 36 -27 51 10 82 61 51 69 62 69 91 0 37 -8 42 -78 47
-42 4 -68 0 -98 -14z m1061 -1682 c4 -6 -5 -10 -19 -10 -14 0 -26 5 -26 10 0
6 9 10 19 10 11 0 23 -4 26 -10z"/>
<path d="M5797 2569 c-29 -8 -56 -34 -57 -54 0 -16 136 -66 210 -77 66 -10
139 3 146 27 4 13 -174 93 -229 104 -23 4 -55 4 -70 0z"/>
<path d="M5700 1982 c0 -27 51 -80 101 -105 75 -38 194 -41 282 -7 92 35 67
72 -58 85 -38 4 -80 11 -95 17 -34 13 -230 22 -230 10z"/>
<path d="M5233 1916 c-28 -24 -28 -26 -25 -121 1 -54 7 -118 13 -144 11 -51
98 -232 130 -271 19 -24 20 -24 9 -2 -6 13 -9 31 -6 39 5 11 17 -1 44 -43 71
-110 135 -149 230 -141 48 4 71 1 92 -11 28 -16 29 -16 53 10 15 16 41 29 63
33 81 14 114 26 125 46 15 29 5 46 -31 54 -28 6 -31 10 -26 34 20 88 20 88
-13 99 -28 10 -31 14 -21 32 6 11 17 55 25 98 7 42 16 85 20 94 11 28 -27 38
-142 38 -124 0 -158 12 -135 49 17 29 16 31 -18 31 -16 0 -91 23 -165 50 -74
28 -148 50 -164 50 -17 0 -42 -10 -58 -24z"/>
<path d="M7450 1273 c-25 -8 -67 -30 -95 -48 -50 -32 -51 -33 -210 -39 -88 -3
-275 -14 -415 -25 -140 -11 -308 -23 -372 -27 l-118 -7 0 -26 c0 -37 26 -70
69 -89 l36 -16 -40 -6 c-36 -4 -41 -9 -49 -41 -14 -58 10 -115 55 -131 11 -4
8 -12 -10 -32 -14 -14 -29 -26 -35 -26 -25 0 -286 296 -286 324 0 3 24 3 53 0
29 -3 64 -1 80 5 25 10 28 15 25 48 -4 48 -12 51 -151 52 -76 1 -118 -4 -144
-14 -33 -14 -40 -14 -79 1 -41 16 -154 17 -169 2 -8 -7 17 -94 39 -135 25 -49
136 -156 211 -204 39 -25 107 -69 153 -99 45 -29 104 -76 130 -105 26 -29 60
-55 77 -59 15 -4 72 -27 124 -51 122 -55 155 -60 166 -25 7 22 44 27 63 8 22
-22 143 28 279 116 91 58 157 91 225 111 60 17 101 50 292 234 130 126 200
242 181 301 -8 24 -25 24 -85 3z"/>
</g>
</svg>
