<?xml version="1.0" standalone="no"?>
<!DOCTYPE svg PUBLIC "-//W3C//DTD SVG 20010904//EN"
 "http://www.w3.org/TR/2001/REC-SVG-20010904/DTD/svg10.dtd">
<svg version="1.0" xmlns="http://www.w3.org/2000/svg"
 width="1280.000000pt" height="640.000000pt" viewBox="0 0 1280.000000 640.000000"
 preserveAspectRatio="xMidYMid meet">
<metadata>
Created by potrace 1.15, written by Peter Selinger 2001-2017
</metadata>
<g transform="translate(0.000000,640.000000) scale(0.100000,-0.100000)"
fill="#000000" stroke="none">
<path d="M12192 5765 c-123 -124 -237 -232 -255 -242 -40 -20 -65 -39 -255
-190 -84 -67 -179 -136 -212 -152 -33 -17 -160 -93 -282 -169 -321 -201 -463
-277 -608 -327 -563 -195 -657 -225 -706 -225 -27 0 -54 -4 -60 -9 -19 -18
-263 -63 -414 -77 -343 -31 -547 -43 -804 -48 -149 -3 -350 -9 -447 -12 l-177
-6 -38 34 c-22 19 -54 44 -71 57 -18 12 -33 29 -33 37 0 8 -3 14 -7 15 -30 3
-55 17 -169 95 -114 77 -326 235 -509 376 -33 26 -98 76 -145 112 -47 36 -95
74 -106 83 -12 10 -57 45 -99 78 -43 33 -116 92 -164 130 -47 39 -108 86 -135
105 -26 19 -100 84 -165 143 -206 192 -315 270 -397 283 -40 6 -44 4 -120 -64
-68 -60 -527 -526 -558 -567 -9 -11 -20 -12 -59 -4 -39 9 -56 8 -97 -7 -44
-16 -55 -16 -88 -5 -20 8 -61 35 -91 60 l-54 46 7 302 6 301 -36 12 c-54 18
-105 -2 -155 -61 -21 -26 -39 -50 -39 -54 0 -4 -15 -39 -34 -78 -71 -152 -100
-220 -115 -272 -29 -107 -78 -133 -128 -69 -50 65 -179 184 -238 219 -91 55
-138 65 -316 65 -171 0 -153 4 -383 -86 -111 -44 -143 -66 -284 -198 -62 -58
-117 -106 -121 -106 -4 0 -70 106 -147 236 -184 313 -315 465 -374 434 -9 -5
-34 -37 -56 -72 l-39 -63 -12 -175 c-6 -96 -14 -204 -18 -240 -12 -128 -26
-287 -35 -410 -5 -69 -12 -143 -15 -165 -4 -22 -6 -56 -5 -75 1 -35 -9 -131
-36 -330 -8 -58 -14 -118 -14 -133 0 -15 -6 -30 -14 -33 -15 -6 -106 37 -123
58 -7 9 -8 48 -1 128 9 112 1 218 -16 212 -5 -1 -9 -68 -10 -148 -1 -127 -3
-148 -18 -158 -13 -8 -23 -6 -45 10 -27 20 -28 26 -34 125 -7 101 -31 187 -58
203 -16 10 -13 -6 9 -55 15 -33 20 -66 20 -131 0 -48 -4 -90 -10 -93 -11 -7
-65 19 -76 37 -4 6 -8 52 -10 103 -2 90 -26 199 -45 211 -19 11 -19 -2 -2 -37
25 -48 32 -236 10 -245 -35 -13 -52 12 -54 78 -2 95 -51 224 -75 200 -6 -6
-17 -8 -24 -5 -17 6 -18 -9 -3 -24 15 -15 16 -150 2 -164 -12 -12 -95 19 -109
42 -4 7 -7 55 -5 107 2 56 -3 112 -10 138 -14 47 -36 63 -24 17 10 -36 17
-181 10 -210 -6 -25 -36 -31 -53 -10 -5 6 -13 33 -16 60 -4 26 -18 71 -31 100
-13 29 -26 79 -30 110 -15 118 -33 60 -26 -83 3 -62 -11 -110 -33 -110 -32 0
-58 36 -67 90 -10 63 -28 112 -39 105 -7 -5 2 -74 15 -107 5 -12 1 -20 -9 -24
-23 -9 -85 41 -92 74 -14 66 -40 116 -54 107 -5 -3 1 -22 13 -43 11 -21 18
-46 14 -55 -6 -15 -10 -15 -42 4 -48 28 -55 45 -55 128 0 41 -4 71 -10 71 -6
0 -10 -28 -10 -63 0 -35 -3 -66 -6 -70 -4 -3 -26 7 -50 24 -43 29 -62 64 -50
94 8 21 -5 105 -15 105 -5 0 -9 -26 -9 -58 0 -32 -3 -62 -7 -66 -4 -3 -21 8
-38 24 -32 31 -32 33 -27 102 4 52 2 69 -7 64 -6 -4 -11 -25 -11 -46 0 -40
-16 -62 -30 -40 -4 7 -5 39 -3 71 5 50 3 59 -11 59 -12 0 -16 -10 -16 -40 0
-22 -4 -40 -8 -40 -5 0 -23 20 -40 44 -24 33 -32 56 -33 88 0 38 -2 40 -11 21
-6 -13 -15 -23 -19 -23 -5 0 -26 24 -48 53 -58 78 -108 133 -115 126 -7 -6 16
-39 188 -269 59 -80 111 -151 114 -159 4 -12 -5 -13 -49 -8 -49 6 -52 5 -35
-8 11 -8 40 -15 66 -15 42 0 53 -6 133 -72 95 -77 97 -88 20 -88 -24 0 -43 -4
-43 -10 0 -6 35 -10 84 -10 66 0 88 -4 106 -18 25 -21 20 -42 -10 -42 -22 0
-35 -16 -20 -25 5 -3 26 2 46 11 32 16 40 16 62 3 31 -17 32 -31 3 -44 -23
-11 -28 -25 -9 -25 6 0 26 5 44 12 27 9 38 9 59 -2 14 -7 25 -19 25 -25 0 -18
-46 -35 -93 -35 -49 0 -78 -13 -52 -24 31 -12 80 -6 136 17 42 18 61 21 78 13
34 -15 21 -39 -31 -57 -26 -8 -51 -19 -55 -22 -14 -15 55 -5 96 13 56 26 65
25 118 -5 47 -28 54 -44 23 -52 -11 -3 -20 -9 -20 -14 0 -14 43 -10 64 6 22
16 44 8 88 -33 21 -20 25 -28 16 -39 -18 -22 -2 -26 27 -7 25 17 28 16 71 -4
24 -12 44 -29 44 -37 0 -21 -96 -65 -142 -65 -21 0 -38 -4 -38 -10 0 -13 75
-13 121 0 20 6 54 22 74 36 32 21 42 24 61 15 27 -12 23 -33 -9 -49 -25 -13
-130 -40 -167 -44 -31 -4 -33 -29 -2 -44 55 -27 134 -136 114 -156 -17 -17
-49 1 -97 57 -56 66 -77 73 -34 11 17 -24 28 -49 25 -55 -9 -14 -71 -14 -97
-1 -10 6 -19 21 -19 33 -1 30 -33 99 -55 117 -17 14 -18 13 -11 -20 3 -19 13
-38 21 -43 16 -8 21 -77 7 -77 -5 0 -14 10 -20 23 l-11 22 -7 -22 c-8 -27 -42
-31 -50 -5 -17 50 -27 71 -50 96 -35 37 -42 25 -10 -17 14 -18 27 -44 28 -58
2 -19 -2 -25 -24 -27 -19 -2 -38 7 -69 35 -24 22 -40 31 -36 21 9 -24 -10 -23
-52 3 -59 36 -56 14 4 -27 62 -42 70 -57 30 -62 -14 -2 -25 -8 -25 -13 0 -12
91 -12 123 0 13 5 30 6 37 1 10 -6 2 -13 -26 -26 -33 -15 -36 -18 -17 -21 12
-3 43 5 69 16 49 22 94 27 94 12 0 -5 -21 -17 -47 -26 -84 -30 -94 -35 -88
-45 4 -7 12 -7 25 0 10 5 27 10 37 10 10 0 45 14 77 30 58 29 106 39 106 21 0
-14 -66 -69 -110 -91 -40 -20 -60 -40 -40 -40 25 0 114 54 151 93 40 40 41 41
56 22 13 -19 10 -24 -47 -75 -71 -64 -79 -84 -16 -40 25 16 47 30 50 30 12 0
6 -52 -10 -81 -8 -17 -13 -36 -11 -42 7 -21 38 40 46 92 6 39 17 61 42 87 18
19 41 34 51 34 29 0 24 -83 -8 -149 -30 -59 -27 -77 5 -32 28 39 51 105 51
148 0 32 2 34 28 31 24 -3 28 -8 33 -48 5 -34 3 -50 -9 -63 -13 -14 -14 -20
-3 -26 8 -6 10 -19 6 -45 -5 -23 -3 -36 4 -36 5 0 13 22 17 49 5 36 18 65 51
110 25 33 49 58 54 55 13 -8 11 -151 -2 -176 -9 -16 -8 -19 3 -16 17 6 38 69
47 138 l6 55 65 -3 c35 -1 68 -6 72 -10 9 -9 -50 -192 -76 -239 -28 -50 -45
-103 -39 -119 3 -9 17 -20 32 -25 l26 -10 -47 -42 c-167 -151 -218 -201 -278
-272 -37 -44 -154 -170 -261 -279 -166 -171 -211 -210 -314 -279 -215 -144
-289 -195 -375 -262 -94 -71 -184 -128 -293 -183 l-72 -36 -205 -9 c-113 -5
-229 -9 -257 -9 -77 0 -69 -25 12 -39 22 -3 69 -14 104 -24 57 -15 79 -16 205
-5 83 7 168 20 206 32 54 18 231 118 410 233 19 12 87 55 150 95 63 40 129 87
145 105 17 17 55 49 85 72 78 59 497 485 571 582 26 33 27 33 52 16 24 -16 27
-15 45 3 11 11 38 45 61 76 23 31 45 56 50 56 4 0 21 11 37 25 49 42 60 26 22
-28 -23 -32 -369 -439 -522 -612 -194 -220 -411 -497 -690 -878 -61 -84 -140
-213 -151 -246 -3 -12 -3 -25 0 -31 18 -30 120 73 235 236 76 109 229 306 390
504 205 252 274 335 340 410 42 47 87 99 100 116 14 17 87 99 162 182 75 83
215 242 310 352 119 140 183 206 206 216 37 15 138 19 146 6 7 -11 -146 -458
-276 -807 -31 -82 -74 -197 -95 -255 -45 -124 -107 -250 -187 -378 -31 -52
-69 -121 -83 -155 -74 -174 -356 -524 -545 -678 -97 -79 -332 -299 -339 -318
-4 -9 -33 -41 -65 -71 -33 -29 -141 -133 -242 -230 -101 -96 -209 -192 -240
-214 -72 -48 -193 -106 -224 -106 -21 0 -167 -38 -213 -56 -29 -10 -55 -35
-55 -51 0 -18 67 -17 155 3 39 8 99 22 135 30 125 28 337 175 649 448 97 85
370 357 465 463 50 56 153 171 229 255 76 84 182 202 235 262 54 59 120 129
147 155 91 83 115 121 130 202 7 41 22 97 34 124 11 28 42 111 70 185 27 74
69 189 94 255 25 66 96 255 157 420 61 165 117 315 126 334 8 18 30 90 49 160
19 69 41 131 48 136 141 105 147 113 147 187 0 95 14 134 62 168 30 22 52 30
82 30 38 0 46 -5 92 -58 71 -80 132 -157 184 -230 25 -35 68 -91 96 -125 28
-34 61 -78 75 -99 26 -38 193 -198 207 -198 16 0 50 45 56 76 4 16 2 79 -4
140 -6 60 -12 120 -13 133 -4 44 20 32 43 -21 28 -67 115 -215 144 -246 46
-51 119 -68 149 -34 8 9 24 39 34 67 10 27 26 51 34 53 9 1 40 -14 70 -35 51
-36 59 -38 152 -43 82 -4 101 -8 113 -24 8 -11 14 -27 15 -35 0 -9 4 -38 9
-66 20 -116 60 -389 80 -540 5 -44 14 -96 19 -115 5 -19 15 -56 22 -82 11 -47
43 -88 57 -74 10 10 4 147 -9 216 -23 124 -40 239 -44 310 -2 41 -9 140 -14
220 -6 80 -11 179 -11 220 l0 75 108 108 c59 59 112 107 118 107 5 0 25 -16
44 -35 l33 -34 -7 -88 c-16 -210 -48 -524 -81 -788 -8 -71 -17 -143 -19 -160
-2 -16 -11 -66 -20 -110 -15 -73 -37 -192 -52 -287 -10 -56 2 -85 56 -142 27
-28 71 -85 99 -126 27 -41 79 -115 115 -165 95 -131 166 -231 207 -289 181
-257 202 -290 226 -363 20 -60 32 -79 57 -94 17 -10 56 -48 86 -85 57 -68 242
-242 349 -329 161 -130 337 -235 439 -261 52 -14 72 -12 72 6 0 5 -63 41 -140
80 -78 38 -165 86 -195 106 -57 37 -260 243 -326 329 -21 28 -59 77 -84 110
-25 33 -68 90 -97 128 -28 37 -64 89 -78 116 -39 70 -242 365 -475 688 -128
177 -134 192 -128 323 2 58 7 229 9 380 2 151 9 309 13 350 5 41 17 147 26
235 18 179 43 346 54 358 4 4 47 -26 94 -68 48 -41 106 -88 130 -103 25 -15
62 -39 83 -53 35 -23 200 -112 324 -174 25 -13 76 -41 115 -64 38 -23 78 -41
89 -41 20 0 62 -13 311 -95 94 -31 181 -63 194 -72 25 -16 169 -60 241 -73
150 -27 387 -50 580 -55 109 -4 116 -5 135 -29 37 -46 125 -233 166 -349 l24
-68 45 6 c43 6 55 2 180 -65 238 -127 350 -191 610 -349 140 -85 282 -170 315
-189 121 -72 281 -176 340 -220 84 -65 214 -142 240 -142 21 0 139 -44 160
-59 11 -9 172 -67 280 -102 104 -33 551 -201 669 -251 39 -17 85 -32 101 -34
17 -3 62 -9 100 -14 82 -12 340 -32 440 -35 39 -1 171 -8 295 -15 240 -14 296
-10 425 30 33 10 146 41 250 70 105 29 210 58 235 66 25 7 142 62 260 121 214
108 244 130 203 152 -23 12 -109 -21 -292 -110 -118 -58 -350 -135 -486 -160
-326 -62 -390 -67 -765 -59 -190 4 -356 12 -370 18 -14 5 -70 12 -125 16 -133
10 -146 13 -465 128 -272 98 -326 118 -510 197 -52 22 -156 63 -230 91 -82 30
-161 67 -200 94 -36 24 -225 140 -420 258 -512 310 -542 328 -575 359 -16 15
-104 75 -195 133 -91 57 -192 122 -225 143 -33 21 -68 53 -79 72 l-19 34 26
19 c36 26 34 38 -7 38 -18 0 -49 6 -68 14 -39 17 -101 87 -123 140 -22 52 -5
61 116 58 65 -2 99 0 99 7 0 6 18 11 39 11 49 0 76 30 85 94 8 52 26 71 60 62
14 -3 28 -1 34 7 18 21 63 141 58 154 -3 6 -20 20 -38 29 -44 22 -48 30 -48
90 0 33 -5 56 -15 64 -9 8 -77 15 -190 20 l-176 8 -97 63 c-193 124 -367 242
-390 263 -13 11 -66 50 -119 86 -105 70 -145 112 -126 131 9 9 81 -13 285 -86
150 -53 298 -107 328 -120 30 -12 80 -30 110 -40 30 -10 64 -21 75 -25 118
-46 135 -49 155 -25 7 8 13 29 15 47 1 18 6 43 10 55 6 18 -1 27 -39 55 -75
53 -388 207 -696 342 -532 233 -499 214 -547 293 -23 37 -52 86 -64 108 -45
82 -215 332 -258 378 l-44 48 -100 -7 c-99 -7 -101 -8 -162 -53 -35 -25 -73
-53 -85 -61 -12 -8 -48 -34 -78 -58 -64 -48 -56 -49 -187 13 -49 23 -129 57
-177 75 -49 18 -88 36 -88 40 0 9 30 48 95 125 28 33 60 72 71 86 28 38 221
270 251 301 28 30 105 68 175 88 l48 13 63 -54 c35 -30 81 -67 102 -84 48 -38
174 -143 320 -265 62 -52 159 -133 215 -180 57 -47 148 -123 204 -170 56 -47
135 -112 176 -145 41 -33 84 -69 95 -80 12 -11 54 -47 94 -80 92 -77 229 -210
355 -348 111 -121 144 -144 178 -126 13 7 31 22 40 35 24 30 50 32 488 39 201
4 372 8 380 10 8 3 146 7 305 10 306 5 566 18 584 29 6 4 45 16 88 27 43 11
87 24 98 29 44 21 317 110 339 110 13 0 31 9 41 20 10 11 25 20 34 20 8 0 74
20 145 44 165 55 266 86 281 86 25 0 139 53 222 103 48 30 180 114 293 189
113 74 259 170 324 213 110 72 309 217 485 352 41 32 95 82 120 112 89 104
177 194 258 262 45 38 84 78 88 89 7 22 -10 60 -28 60 -6 0 -112 -101 -235
-225z m-9534 -220 c49 -77 121 -191 162 -254 l72 -114 -40 -76 c-37 -71 -75
-182 -118 -344 l-17 -68 42 -43 c64 -65 57 -76 -69 -108 -58 -14 -128 -26
-156 -27 -37 -1 -61 -8 -88 -26 l-36 -24 0 62 c0 34 7 125 16 202 19 165 19
166 34 315 6 63 13 133 16 155 4 38 18 230 31 415 7 98 17 120 44 93 10 -10
58 -81 107 -158z m2081 13 c-1 -29 -4 -86 -8 -127 l-6 -75 -57 -3 c-46 -3 -58
0 -58 12 0 20 112 245 122 245 5 0 7 -24 7 -52z m1584 -621 c36 -48 169 -315
163 -326 -4 -5 -50 9 -104 32 -53 22 -160 66 -237 97 -162 65 -174 80 -103
120 24 13 69 41 101 62 112 75 134 77 180 15z m-1577 -783 c69 -53 82 -68 75
-82 -5 -9 -55 -61 -110 -115 -55 -54 -103 -107 -106 -118 -4 -10 -12 -19 -18
-19 -18 1 -101 120 -100 142 2 18 86 174 125 231 11 15 26 27 35 27 8 0 53
-30 99 -66z"/>
<path d="M620 5212 c0 -15 36 -42 56 -42 16 0 14 4 -11 25 -32 26 -45 31 -45
17z"/>
<path d="M830 4900 c0 -5 5 -10 10 -10 6 0 10 5 10 10 0 6 -4 10 -10 10 -5 0
-10 -4 -10 -10z"/>
<path d="M1020 4720 c0 -5 14 -10 30 -10 17 0 30 5 30 10 0 6 -13 10 -30 10
-16 0 -30 -4 -30 -10z"/>
<path d="M1240 4550 c0 -6 12 -15 26 -20 32 -13 141 -13 148 -1 8 12 -40 23
-90 20 -21 -1 -49 1 -61 5 -15 5 -23 3 -23 -4z"/>
<path d="M1480 4369 c0 -5 5 -7 10 -4 6 3 10 8 10 11 0 2 -4 4 -10 4 -5 0 -10
-5 -10 -11z"/>
<path d="M1415 4360 c-3 -5 3 -10 14 -10 12 0 21 5 21 10 0 6 -6 10 -14 10 -8
0 -18 -4 -21 -10z"/>
</g>
</svg>
