<?xml version="1.0" standalone="no"?>
<!DOCTYPE svg PUBLIC "-//W3C//DTD SVG 20010904//EN"
 "http://www.w3.org/TR/2001/REC-SVG-20010904/DTD/svg10.dtd">
<svg version="1.0" xmlns="http://www.w3.org/2000/svg"
 width="1280.000000pt" height="1246.000000pt" viewBox="0 0 1280.000000 1246.000000"
 preserveAspectRatio="xMidYMid meet">
<metadata>
Created by potrace 1.15, written by Peter Selinger 2001-2017
</metadata>
<g transform="translate(0.000000,1246.000000) scale(0.100000,-0.100000)"
fill="#000000" stroke="none">
<path d="M2441 12445 c-85 -19 -102 -31 -188 -133 -10 -12 -40 -27 -68 -33
-166 -39 -126 -12 -406 -269 -100 -92 -191 -206 -214 -270 -9 -25 -23 -73 -32
-108 -10 -44 -27 -77 -56 -113 -23 -28 -47 -61 -54 -73 -26 -47 -43 -572 -22
-696 4 -30 13 -100 19 -155 15 -147 37 -268 67 -369 23 -82 25 -100 20 -220
-3 -83 0 -166 8 -226 7 -52 19 -140 25 -195 24 -213 159 -673 231 -791 22 -36
24 -83 7 -131 -11 -30 -9 -43 15 -111 15 -42 38 -129 52 -192 31 -139 34 -151
97 -315 82 -214 165 -372 209 -395 18 -10 19 -18 13 -104 -7 -102 16 -245 62
-384 13 -40 24 -81 24 -91 0 -51 42 -135 108 -213 38 -46 79 -92 92 -103 51
-46 45 -108 -14 -143 -17 -10 -44 -43 -61 -73 -26 -48 -30 -65 -32 -147 l-2
-93 -188 -93 c-103 -51 -226 -108 -273 -126 -79 -31 -93 -41 -202 -149 -100
-98 -124 -127 -158 -195 -44 -91 -113 -203 -243 -395 -95 -141 -112 -174 -150
-301 -15 -47 -40 -107 -57 -133 -17 -27 -48 -84 -70 -126 -21 -43 -51 -93 -67
-111 -15 -19 -50 -68 -78 -109 -28 -42 -68 -88 -91 -104 l-41 -29 -116 12
c-65 7 -179 10 -254 8 -136 -4 -139 -5 -213 -42 -86 -44 -143 -84 -135 -95 2
-5 25 -11 49 -13 55 -7 134 -51 146 -83 13 -35 45 -48 104 -42 79 8 374 54
439 69 52 11 62 11 89 -5 l31 -18 63 62 c36 36 83 97 111 146 26 46 76 128
110 182 34 54 78 129 99 167 21 38 54 94 74 124 20 30 48 75 62 100 14 25 57
80 95 123 59 67 77 97 130 220 34 78 72 169 85 202 33 84 52 93 237 110 162
15 160 14 381 115 145 66 179 72 208 35 20 -25 21 -29 6 -57 -19 -37 -14 -83
21 -181 24 -69 94 -196 121 -218 21 -17 17 -47 -8 -60 -12 -7 -57 -15 -99 -20
-42 -4 -85 -12 -95 -18 -11 -6 -64 -25 -118 -41 -103 -31 -160 -60 -170 -85
-3 -8 -18 -21 -33 -27 -15 -7 -44 -26 -64 -43 -20 -16 -76 -58 -125 -92 -49
-34 -138 -101 -197 -149 -118 -94 -465 -435 -502 -493 -18 -28 -28 -72 -45
-200 -21 -148 -22 -176 -12 -280 10 -98 9 -127 -5 -197 -17 -89 -17 -95 27
-259 27 -100 36 -267 22 -404 -6 -57 -12 -105 -14 -107 -2 -2 -65 -10 -139
-19 -149 -17 -271 -41 -310 -61 -33 -16 -179 -180 -179 -200 0 -11 7 -13 27
-8 17 5 30 2 37 -7 7 -10 32 -14 78 -14 54 0 72 -4 98 -23 l32 -24 76 20 c78
20 221 75 300 114 46 23 86 27 138 14 26 -7 36 -3 67 23 68 60 81 137 92 526
3 127 10 281 15 343 8 96 6 128 -11 222 -23 125 -22 219 1 230 8 4 76 37 152
73 130 64 141 72 259 185 129 124 292 306 337 379 23 38 66 96 102 141 20 23
90 13 179 -25 47 -20 92 -40 99 -46 7 -5 33 -40 57 -78 25 -37 80 -99 121
-138 90 -84 221 -191 235 -191 5 0 9 -15 9 -34 0 -26 -11 -47 -45 -88 -65 -75
-165 -275 -165 -328 0 -23 -5 -50 -10 -60 -6 -11 -72 -71 -148 -134 -125 -104
-175 -157 -228 -240 -13 -21 -20 -57 -25 -135 -4 -80 -11 -115 -26 -141 -12
-19 -26 -52 -32 -72 -7 -20 -30 -56 -53 -78 -75 -78 -90 -146 -103 -453 -6
-135 -5 -161 9 -182 9 -13 36 -84 61 -157 25 -73 62 -158 82 -188 40 -61 210
-234 350 -355 50 -44 119 -114 152 -156 64 -80 93 -105 286 -240 67 -46 158
-122 205 -170 110 -112 195 -183 361 -302 73 -53 159 -115 189 -138 257 -194
416 -287 695 -407 340 -145 798 -251 1085 -252 219 0 410 71 410 153 0 41 -34
57 -116 57 -138 0 -272 19 -350 50 -40 16 -103 34 -138 40 -87 14 -102 20
-196 84 -45 31 -96 58 -117 61 -80 14 -231 66 -288 100 -79 47 -114 82 -178
179 -74 113 -86 120 -213 126 -90 4 -108 8 -121 25 -31 41 -83 162 -103 240
-11 44 -29 104 -40 133 -26 67 -25 108 2 152 11 19 34 67 50 105 53 128 144
193 253 182 53 -5 68 -12 245 -110 80 -45 127 -47 255 -13 141 37 166 39 260
21 52 -11 103 -15 128 -11 23 3 110 15 192 26 83 11 209 35 280 53 123 32 133
33 177 20 60 -17 83 -7 99 46 10 33 9 45 -7 78 -30 60 -135 107 -300 134 -285
45 -701 125 -761 145 -115 39 -396 149 -481 189 -87 41 -94 47 -113 91 -19 41
-20 58 -14 153 8 127 -6 227 -40 293 -14 26 -25 53 -25 61 0 7 -16 37 -35 67
-19 30 -35 61 -35 70 0 9 -17 52 -38 96 -21 43 -42 92 -46 108 -16 63 -113
154 -292 272 -95 62 -200 127 -235 144 -35 18 -95 51 -132 74 l-69 41 5 65 c4
69 37 158 68 185 16 15 36 17 146 13 84 -3 135 -9 148 -17 26 -18 125 -136
125 -150 0 -6 4 -11 10 -11 5 0 16 -13 24 -29 15 -28 165 -160 346 -302 135
-107 167 -127 238 -149 90 -28 102 -36 102 -70 0 -24 -6 -30 -35 -40 -20 -6
-48 -23 -64 -36 -39 -33 -118 -161 -126 -205 -8 -42 13 -92 45 -109 11 -6 37
-36 59 -68 58 -86 113 -144 219 -233 91 -76 303 -222 456 -314 37 -22 100 -61
141 -86 61 -38 86 -47 137 -52 35 -3 83 -13 108 -22 64 -23 512 -70 565 -59
16 3 46 16 66 29 35 23 39 23 195 15 87 -5 168 -11 180 -15 13 -4 25 -1 33 9
23 27 182 22 278 -9 88 -28 114 -30 193 -13 50 10 63 9 124 -12 38 -12 105
-41 149 -63 63 -31 95 -41 148 -45 94 -7 104 -1 79 40 -23 38 -26 67 -7 73 6
2 34 6 60 10 52 7 58 22 16 42 -141 68 -189 83 -299 97 -212 27 -242 37 -326
100 l-40 31 -315 3 c-346 3 -374 5 -536 33 -69 12 -190 23 -310 27 l-196 7
-11 30 c-6 17 -17 40 -23 51 -14 25 -292 235 -409 309 -64 40 -79 55 -79 75 0
22 6 25 60 36 33 7 79 20 102 28 24 8 71 18 105 22 35 4 75 14 91 22 23 14 31
15 60 3 94 -41 225 -17 319 57 l61 47 136 1 c124 1 141 4 181 25 43 23 58 24
280 30 206 5 242 8 293 27 31 11 91 26 133 32 42 5 81 13 88 17 6 4 38 15 71
24 154 43 194 57 251 88 33 17 83 50 110 73 83 69 203 108 240 77 39 -32 90
-44 194 -44 l105 0 165 76 c91 42 193 86 227 98 68 25 95 49 133 119 18 34 38
54 75 74 28 15 57 28 66 28 10 0 57 20 107 45 98 49 116 52 159 30 15 -8 69
-29 118 -46 143 -50 155 -56 155 -81 -1 -13 -7 -59 -15 -103 -20 -110 -19
-134 11 -199 14 -30 32 -95 40 -143 8 -49 19 -113 24 -143 5 -30 12 -109 16
-175 8 -159 16 -188 58 -214 18 -12 44 -21 57 -21 32 0 206 -88 244 -124 17
-15 47 -37 69 -48 35 -18 45 -19 115 -8 42 7 97 14 124 17 26 3 47 10 47 16 0
38 -95 155 -157 195 -45 28 -204 92 -265 106 -25 6 -26 9 -34 103 -12 161 -9
303 8 364 17 60 16 77 -22 218 l-22 85 22 18 c31 25 47 23 152 -18 106 -41
131 -44 212 -21 53 15 62 15 83 2 35 -24 43 -18 43 30 0 25 5 45 10 45 23 0 6
21 -66 77 -96 77 -124 86 -478 151 -36 7 -40 10 -53 57 -11 36 -31 66 -69 107
-66 70 -70 96 -18 141 20 18 45 51 55 75 15 34 23 42 45 42 15 0 41 9 58 20
18 10 74 26 124 34 76 12 115 26 215 76 68 33 130 60 138 60 9 0 39 -36 67
-79 56 -86 107 -133 252 -233 133 -92 253 -161 335 -193 39 -15 115 -50 170
-78 82 -41 110 -50 155 -51 55 -1 55 -1 68 -41 7 -22 20 -47 28 -56 8 -9 24
-39 34 -67 25 -66 82 -155 136 -214 50 -54 52 -60 57 -193 4 -104 26 -175 108
-352 30 -63 39 -146 18 -159 -6 -3 -24 -27 -40 -52 -41 -65 -39 -121 7 -181 2
-2 18 9 36 24 31 26 36 27 119 23 118 -7 159 -29 278 -147 105 -104 157 -180
192 -281 18 -53 23 -87 23 -185 1 -203 -40 -299 -196 -458 -100 -102 -146
-133 -245 -166 -88 -30 -101 -44 -87 -97 26 -105 209 -101 390 7 67 40 201
171 264 258 61 84 171 323 208 454 39 133 57 228 72 377 9 89 19 129 41 175
39 83 58 162 68 285 6 69 16 121 30 152 12 26 26 84 32 130 5 46 15 98 21 117
20 63 -8 451 -39 546 -9 28 -40 95 -69 150 -29 55 -71 148 -94 207 -34 89 -51
118 -99 171 -32 35 -90 111 -129 169 -97 142 -174 213 -392 362 -99 67 -151
89 -372 156 -110 34 -147 40 -288 50 -137 9 -170 14 -214 35 -67 32 -146 49
-384 86 -304 47 -392 59 -454 59 -31 0 -83 7 -115 15 -32 8 -103 15 -163 16
-58 0 -127 5 -155 10 -127 24 -141 24 -208 -10 -79 -40 -95 -50 -133 -82 -23
-19 -47 -28 -94 -32 -65 -7 -65 -7 -126 38 -10 7 -18 3 -30 -14 -15 -21 -21
-23 -80 -16 l-64 7 -15 -36 c-30 -70 -83 -95 -136 -63 -18 10 -23 9 -39 -11
-24 -29 -51 -25 -68 11 -7 15 -22 32 -33 37 -28 15 -24 34 26 126 25 45 45 87
45 93 0 6 -17 20 -37 31 -21 11 -49 29 -63 40 -24 19 -28 20 -71 5 -25 -9 -67
-34 -94 -56 -58 -48 -96 -69 -125 -69 -21 0 -32 4 -110 44 -19 10 -46 22 -60
26 -66 21 -258 113 -291 139 -20 16 -57 39 -83 52 -26 12 -89 59 -139 104 -51
45 -149 122 -217 170 -69 49 -152 110 -185 135 -87 69 -194 141 -234 157 -19
8 -133 35 -255 59 -167 35 -253 47 -351 51 -146 6 -186 -1 -257 -46 -66 -42
-92 -96 -85 -174 7 -83 51 -167 99 -190 51 -25 133 -117 219 -244 80 -120 179
-313 179 -349 0 -22 -4 -24 -48 -24 -26 0 -88 11 -137 25 -50 14 -126 28 -170
31 -67 6 -83 11 -98 31 -24 30 -78 57 -147 73 -30 7 -75 23 -100 36 -25 13
-59 24 -76 24 -39 0 -124 55 -124 80 0 11 -5 22 -11 25 -15 10 -288 330 -345
406 -53 70 -201 245 -275 325 -26 28 -57 70 -69 94 -32 63 -104 130 -192 178
-42 23 -83 42 -90 42 -7 0 -54 16 -103 36 -149 59 -208 73 -435 99 -184 21
-241 20 -289 -6 -52 -27 -80 -19 -201 60 -52 33 -98 61 -103 61 -15 0 -234
159 -293 213 -30 27 -64 66 -75 86 -10 20 -23 43 -27 51 -39 70 -83 174 -92
215 -14 61 -65 172 -113 248 -20 31 -43 72 -51 91 -12 28 -23 37 -58 46 -73
19 -92 33 -100 70 -4 19 -19 85 -32 145 -14 61 -34 164 -46 230 -12 66 -32
149 -44 185 -13 36 -31 88 -41 115 -54 156 -103 226 -190 271 -30 16 -57 36
-61 44 -8 21 -22 198 -34 420 -10 197 -44 413 -79 514 -32 91 -85 177 -137
223 l-47 43 7 111 c3 61 15 156 26 212 11 56 23 131 26 165 7 63 23 87 45 65
6 -6 16 -53 24 -105 8 -52 24 -125 36 -164 23 -74 57 -149 65 -141 3 3 -2 56
-12 118 -10 73 -15 145 -11 198 4 76 10 95 52 177 95 188 102 195 292 269 108
43 212 113 298 200 91 93 121 137 152 226 37 106 31 186 -22 297 -24 53 -53
96 -76 115 -49 43 -58 63 -75 170 -8 51 -21 109 -29 130 -19 48 -19 90 1 156
20 68 13 87 -34 95 -48 9 -157 33 -254 57 -90 22 -157 23 -247 4z m-156 -1047
c28 -168 37 -249 37 -343 0 -174 -29 -304 -65 -292 -8 2 -16 52 -23 138 -15
175 -41 320 -70 391 -43 102 -26 138 62 138 52 0 53 -1 59 -32z m4737 -5593
c56 -18 58 -18 123 3 36 12 79 22 96 22 38 0 97 -30 130 -66 15 -16 36 -37 49
-47 19 -16 22 -26 17 -64 -2 -24 -14 -54 -25 -66 -40 -44 -55 -90 -60 -182 -3
-76 1 -110 27 -219 34 -148 32 -162 -28 -151 -48 9 -173 53 -185 65 -6 6 -17
10 -26 10 -26 0 -67 46 -85 97 -15 40 -60 138 -94 203 -73 141 -131 309 -131
384 l0 39 68 -5 c37 -3 93 -13 124 -23z m934 -704 c33 -16 85 -36 115 -45 30
-8 115 -46 189 -82 74 -37 180 -83 235 -103 84 -30 101 -40 103 -59 6 -39 -22
-59 -91 -64 -85 -7 -138 -33 -230 -114 -67 -58 -197 -211 -233 -275 -21 -38
-58 -69 -80 -69 -21 0 -100 56 -136 96 -15 18 -16 28 -3 124 8 61 14 193 15
316 0 116 3 232 6 258 8 57 22 59 110 17z"/>
</g>
</svg>
