<?xml version="1.0" standalone="no"?>
<!DOCTYPE svg PUBLIC "-//W3C//DTD SVG 20010904//EN"
 "http://www.w3.org/TR/2001/REC-SVG-20010904/DTD/svg10.dtd">
<svg version="1.0" xmlns="http://www.w3.org/2000/svg"
 width="1280.000000pt" height="953.000000pt" viewBox="0 0 1280.000000 953.000000"
 preserveAspectRatio="xMidYMid meet">
<metadata>
Created by potrace 1.15, written by Peter Selinger 2001-2017
</metadata>
<g transform="translate(0.000000,953.000000) scale(0.100000,-0.100000)"
fill="#000000" stroke="none">
<path d="M5564 9519 c-4 -8 -27 -9 -65 -5 l-59 6 -31 -42 -30 -42 7 -102 c6
-100 6 -103 -18 -126 -14 -13 -29 -34 -33 -48 -4 -14 -18 -46 -31 -72 -13 -26
-24 -65 -24 -86 0 -52 -25 -140 -141 -487 -22 -66 -52 -156 -65 -200 -32 -105
-52 -137 -94 -152 -72 -25 -247 -71 -305 -80 -143 -23 -476 -131 -611 -198
-283 -140 -492 -318 -706 -601 -212 -281 -267 -411 -290 -691 -14 -167 0 -411
32 -555 55 -253 188 -549 333 -744 153 -205 419 -404 607 -454 25 -7 97 -36
161 -65 173 -79 301 -118 412 -124 9 -1 22 -12 29 -26 15 -33 -4 -55 -46 -55
-17 0 -85 -10 -150 -21 -114 -20 -122 -21 -195 -5 -66 14 -364 59 -576 87 -86
11 -126 24 -155 49 -24 21 -43 18 -34 -5 12 -31 -108 -31 -182 0 -20 8 -35 10
-41 4 -6 -6 -20 -6 -38 1 -15 6 -28 9 -29 8 -1 -2 -6 -16 -11 -33 -20 -60
-194 -116 -458 -149 -101 -12 -124 -18 -158 -43 -90 -65 -104 -74 -123 -78
-33 -6 -135 -32 -195 -49 -29 -8 -64 -27 -77 -41 -19 -20 -32 -25 -74 -25 -54
0 -94 -15 -149 -55 -19 -14 -47 -25 -62 -25 -31 0 -55 -20 -81 -68 -26 -48
-57 -62 -164 -73 -86 -9 -110 -15 -184 -53 -47 -24 -130 -60 -185 -80 -76 -28
-122 -53 -191 -105 -101 -75 -231 -145 -342 -185 -41 -14 -103 -47 -139 -73
-36 -25 -108 -64 -161 -85 -53 -21 -113 -49 -132 -61 -19 -12 -46 -28 -60 -34
-61 -27 -233 -208 -246 -258 -8 -32 29 -85 60 -85 12 0 49 21 82 46 62 49 186
114 217 114 25 0 75 27 115 61 75 66 185 103 274 93 l58 -7 15 36 c26 62 86
87 460 194 33 9 103 43 157 75 53 32 135 74 182 93 102 41 167 74 221 111 22
15 66 33 98 40 32 8 68 21 82 30 13 8 50 24 82 34 32 11 83 28 113 39 31 11
121 27 200 36 80 8 204 30 275 48 125 31 138 32 325 31 113 0 218 -5 249 -12
48 -11 57 -10 80 5 21 15 48 18 146 18 108 1 126 3 182 28 81 35 139 35 212 1
54 -26 60 -27 186 -21 428 21 712 39 804 52 58 9 193 22 300 30 116 9 226 24
274 36 56 15 101 20 153 17 103 -5 116 -23 28 -39 -26 -5 -50 -12 -53 -15 -9
-9 20 -22 65 -29 23 -3 49 -14 57 -23 23 -25 32 -96 17 -132 -14 -33 -66 -70
-99 -70 -14 0 -26 -11 -38 -37 -21 -43 -142 -141 -185 -150 -18 -4 -34 -16
-43 -34 -19 -36 -145 -143 -201 -170 -24 -11 -52 -35 -64 -54 -21 -33 -86 -92
-128 -114 -15 -8 -39 -10 -69 -5 l-46 7 33 -30 34 -31 -34 -21 c-19 -11 -50
-21 -67 -21 -37 0 -40 -6 -16 -32 16 -17 16 -22 3 -46 -9 -14 -30 -35 -48 -45
-33 -19 -33 -19 -88 2 -31 11 -60 19 -65 15 -19 -11 -8 -24 32 -35 22 -7 47
-21 54 -32 12 -17 11 -22 -5 -36 -11 -9 -28 -39 -38 -67 -33 -88 -118 -201
-163 -216 -9 -3 -9 -9 0 -25 24 -46 14 -84 -34 -130 -44 -42 -45 -45 -48 -111
-2 -41 -12 -86 -25 -116 -28 -61 -27 -68 3 -104 32 -38 31 -49 -5 -87 -27 -28
-29 -35 -20 -59 15 -39 12 -147 -4 -194 -32 -91 -46 -392 -25 -552 7 -47 12
-124 13 -171 1 -52 6 -92 14 -101 7 -9 34 -110 61 -226 62 -264 90 -322 151
-322 41 0 63 74 40 135 -5 14 -15 77 -21 141 -9 90 -9 126 0 167 11 46 10 62
-8 134 -25 96 -27 158 -6 210 21 57 38 153 34 198 -5 60 -2 143 6 202 5 31 3
70 -4 101 -10 37 -10 65 -1 113 13 74 32 109 60 109 24 0 26 13 5 30 -21 17
-17 95 5 95 8 0 19 17 26 41 6 22 21 58 32 80 11 22 33 78 48 125 14 46 33 98
41 114 19 38 63 85 80 85 7 0 19 14 28 30 9 17 32 41 53 54 21 13 51 41 66 62
16 22 44 55 63 74 37 38 125 153 224 294 140 198 317 335 526 405 71 24 115
17 154 -25 13 -14 53 -41 89 -59 90 -45 174 -111 248 -194 34 -38 71 -72 81
-76 30 -9 55 -85 48 -145 -5 -39 -3 -50 8 -50 22 0 32 -27 65 -165 31 -131 41
-157 70 -190 10 -11 24 -40 30 -65 9 -33 25 -57 62 -91 51 -48 67 -86 68 -160
0 -23 7 -42 20 -54 11 -10 22 -27 26 -39 4 -11 20 -36 35 -54 35 -40 82 -130
100 -192 7 -25 23 -56 36 -68 28 -30 70 -101 87 -150 8 -20 25 -54 39 -75 14
-20 31 -60 37 -89 17 -72 41 -116 85 -158 20 -19 57 -63 82 -97 25 -35 49 -63
54 -63 5 0 19 -10 30 -21 12 -12 47 -36 77 -53 55 -31 56 -33 95 -131 31 -78
50 -112 92 -157 34 -36 55 -69 59 -91 7 -38 41 -88 98 -147 20 -21 51 -66 69
-101 17 -35 44 -82 59 -104 30 -44 93 -152 128 -220 12 -25 27 -45 32 -45 5 0
25 -25 46 -55 43 -65 188 -203 222 -212 40 -10 64 24 64 90 1 62 -7 76 -99
180 -29 34 -65 86 -80 115 -14 28 -42 76 -62 105 -54 76 -213 341 -251 417
-18 36 -50 94 -70 130 -21 36 -43 83 -49 106 -11 39 -84 154 -143 222 -15 18
-28 40 -28 50 0 10 -19 49 -41 87 -58 98 -74 140 -88 220 -15 89 -37 157 -69
218 -21 39 -24 52 -15 67 10 15 7 22 -14 41 -46 43 -83 101 -83 131 0 35 -32
84 -60 93 -22 7 -70 98 -70 135 0 17 -14 40 -44 69 -25 24 -47 54 -50 66 -12
47 -113 201 -168 256 -34 34 -58 66 -58 78 0 13 -9 25 -22 30 -13 5 -33 19
-45 32 -30 34 -74 131 -67 151 4 13 1 16 -9 12 -10 -3 -18 5 -25 23 -5 15 -13
37 -18 47 -6 16 -4 18 10 13 14 -6 17 -4 11 10 -3 10 -11 40 -17 68 -5 27 -16
60 -24 72 -8 12 -14 30 -14 39 0 9 -20 36 -45 61 -48 47 -55 74 -29 112 17 23
52 26 96 7 13 -6 20 -2 28 18 6 18 20 28 39 32 16 3 50 24 76 45 26 21 51 39
56 39 5 0 9 6 9 14 0 20 85 92 116 100 19 5 37 0 65 -19 67 -44 205 -59 284
-30 56 20 95 19 95 -2 0 -14 2 -15 18 -1 57 51 196 80 248 53 16 -8 39 -15 51
-15 13 0 46 -9 75 -21 29 -12 86 -34 127 -50 137 -53 168 -106 207 -352 32
-205 30 -246 -24 -363 -39 -84 -51 -132 -36 -146 10 -10 124 33 124 47 0 7 11
27 25 43 14 17 25 33 25 37 0 4 14 23 30 42 22 24 30 44 30 71 0 21 7 47 15
59 28 40 47 206 40 349 -6 115 -5 132 10 147 23 24 37 21 70 -13 16 -17 37
-30 47 -30 34 0 99 -41 119 -75 11 -19 36 -43 55 -54 22 -13 41 -36 54 -65 11
-26 27 -47 40 -51 11 -4 56 -33 98 -64 42 -32 96 -68 118 -79 44 -22 176 -124
208 -160 13 -15 16 -29 12 -47 -5 -18 -3 -26 6 -24 7 1 18 1 25 0 21 -2 79
-67 128 -142 60 -92 132 -177 168 -195 15 -8 27 -21 27 -29 0 -8 12 -25 26
-37 14 -13 63 -68 110 -124 87 -104 114 -124 165 -124 33 0 79 -20 98 -44 7
-8 32 -25 57 -36 54 -27 183 -163 191 -202 5 -24 10 -28 38 -28 18 0 42 -8 54
-18 23 -19 95 -146 105 -186 3 -14 28 -48 55 -75 37 -37 69 -89 130 -211 44
-89 81 -169 81 -177 0 -8 13 -31 29 -51 15 -20 41 -67 56 -104 16 -39 53 -98
92 -145 42 -51 85 -119 124 -200 72 -147 79 -156 127 -147 60 11 72 28 72 105
0 56 -4 72 -23 96 -48 57 -157 267 -157 301 0 5 -21 45 -47 90 -27 44 -63 107
-81 140 -19 32 -58 87 -88 121 -40 46 -56 73 -61 104 -4 25 -16 50 -32 65 -22
21 -24 25 -12 44 12 20 10 25 -28 57 -40 35 -52 63 -31 76 6 3 10 15 10 26 0
14 -7 19 -25 19 -29 0 -98 59 -141 121 -27 40 -28 42 -9 55 10 8 25 14 32 14
19 0 16 18 -5 29 -10 5 -43 13 -73 17 -30 4 -59 11 -66 16 -6 5 -24 40 -38 78
-14 38 -33 74 -41 81 -8 6 -21 36 -30 65 -11 38 -24 60 -45 75 -28 20 -29 24
-23 66 l7 45 -69 65 c-38 36 -92 82 -120 103 -50 38 -134 126 -134 140 0 5
-16 18 -36 29 -31 19 -35 25 -29 50 6 29 5 30 -52 41 -32 6 -66 14 -77 17 -28
8 -218 203 -241 248 -17 33 -27 41 -62 48 -33 6 -71 33 -187 133 -146 126
-200 182 -230 241 -8 17 -46 54 -84 82 -76 57 -99 94 -107 174 -7 67 5 91 74
138 30 21 59 46 64 56 6 10 25 35 44 56 18 20 33 45 33 55 0 11 9 27 20 37 11
10 20 26 20 35 0 9 8 41 19 71 10 30 22 91 26 135 6 70 3 95 -25 209 -34 138
-67 212 -111 249 -32 27 -207 86 -255 86 -70 0 -105 36 -90 95 4 17 21 31 54
45 60 27 184 103 240 148 23 18 68 65 98 102 30 38 71 78 90 89 29 17 34 26
34 56 0 33 2 36 23 30 39 -12 42 -11 42 24 0 29 5 36 30 45 35 13 95 65 95 83
0 17 37 39 80 48 19 4 38 12 41 18 10 15 103 21 127 8 18 -9 23 -8 32 9 6 11
17 20 24 20 7 0 34 17 60 37 l48 37 18 -21 c17 -21 17 -21 38 22 17 36 35 52
99 89 88 51 131 57 221 31 58 -18 185 -108 250 -179 51 -55 54 -88 17 -176
-29 -69 -33 -131 -9 -151 14 -11 24 -9 68 14 29 15 79 50 111 77 l57 48 37
-38 c27 -28 49 -40 88 -49 103 -21 313 -135 347 -186 9 -14 26 -25 38 -25 37
0 160 -80 225 -147 43 -42 79 -69 113 -82 27 -10 71 -35 98 -55 27 -19 60 -40
75 -45 14 -6 44 -34 66 -64 26 -36 49 -56 68 -60 15 -4 56 -30 90 -59 34 -29
90 -71 126 -93 175 -108 457 -350 457 -393 0 -11 11 -27 25 -36 16 -11 31 -37
45 -82 24 -80 25 -115 3 -157 -15 -30 -15 -31 1 -18 9 8 20 11 23 7 4 -4 13
-75 19 -159 7 -89 19 -167 28 -189 14 -33 14 -41 -1 -88 -16 -50 -16 -52 7
-107 l23 -55 -21 -44 c-25 -51 -47 -174 -38 -216 12 -59 -47 -308 -82 -351 -9
-11 -8 -18 7 -31 10 -9 21 -30 25 -47 9 -46 31 -46 81 0 24 22 49 41 55 41 21
0 50 41 50 70 0 16 9 52 20 79 12 32 17 62 14 81 -4 17 0 46 9 69 22 55 37
215 37 400 0 176 -12 271 -41 317 -30 49 -25 82 19 124 l39 36 -39 43 c-43 49
-49 89 -21 148 16 35 20 36 68 18 13 -5 7 6 -19 33 -21 22 -49 67 -63 99 -19
46 -77 257 -117 424 -4 20 -14 28 -39 33 -18 3 -47 20 -63 37 -16 17 -63 51
-105 75 -42 24 -98 64 -124 88 l-47 45 19 28 c18 25 36 63 30 63 -1 0 -26 -9
-55 -20 -88 -34 -169 -23 -227 30 -16 15 -47 37 -67 49 -20 12 -47 38 -59 58
-17 27 -41 44 -103 73 -45 21 -97 50 -118 66 -20 16 -50 37 -67 46 -17 9 -45
38 -63 64 -70 101 -80 108 -171 128 -30 7 -247 205 -259 237 -4 10 -22 26 -40
35 -58 30 -104 72 -129 118 l-23 45 42 83 c45 88 78 187 113 333 30 129 82
280 146 424 31 70 58 145 60 168 5 38 1 47 -29 77 -27 27 -59 42 -153 72 -67
21 -135 49 -155 65 -49 37 -168 95 -360 175 -128 53 -192 87 -285 150 -151
102 -214 137 -290 162 -68 22 -138 56 -237 114 -90 53 -93 58 -78 113 7 25 10
48 7 51 -8 8 -37 -51 -37 -75 0 -41 -72 -53 -150 -26 -55 19 -123 19 -161 -1
-25 -12 -60 -15 -183 -12 l-153 3 -54 -38 c-30 -20 -60 -37 -66 -37 -19 0 -55
-55 -133 -204 -53 -101 -81 -143 -102 -155 -22 -12 -32 -29 -44 -71 -36 -130
-38 -135 -69 -149 -38 -18 -42 -25 -55 -91 -19 -95 -38 -137 -70 -150 -41 -17
-63 -10 -83 30 -16 30 -18 52 -14 145 3 61 8 118 12 127 4 9 20 21 36 27 37
13 37 32 -1 91 -27 42 -31 59 -37 146 l-6 99 -61 73 c-34 39 -74 87 -89 106
-45 56 -100 76 -206 77 -58 0 -98 -4 -107 -12 -8 -6 -29 -19 -46 -28 -25 -12
-46 -41 -89 -121 -30 -58 -72 -131 -92 -164 -22 -35 -38 -77 -42 -105 -8 -64
-20 -118 -40 -171 -13 -33 -16 -65 -12 -120 4 -71 3 -77 -24 -107 -15 -18 -32
-50 -37 -70 -27 -107 -63 -360 -77 -533 -17 -215 -21 -234 -73 -333 -47 -91
-61 -99 -141 -86 -116 18 -160 51 -147 105 4 14 -1 46 -9 72 -15 42 -15 73 -5
277 6 126 14 276 19 331 7 97 6 123 -18 294 -6 41 -11 100 -11 130 0 57 -26
231 -60 405 -11 55 -34 224 -50 375 -31 280 -64 524 -75 552 -3 8 -19 25 -36
37 -16 12 -40 46 -53 74 -34 77 -161 213 -268 287 -75 53 -135 75 -254 95
-129 22 -221 51 -242 76 -9 11 -37 29 -62 40 -25 11 -61 32 -80 48 -45 36 -64
46 -148 76 -80 29 -79 29 -88 14z m259 -434 c122 -42 157 -68 191 -142 37 -78
58 -99 143 -140 113 -56 111 -51 122 -248 9 -139 17 -195 45 -307 19 -75 39
-145 44 -155 16 -33 52 -148 52 -168 0 -11 16 -65 35 -120 43 -124 55 -202 32
-211 -19 -7 -60 21 -193 134 -215 182 -469 301 -839 393 -88 22 -167 47 -175
55 -26 26 -18 110 18 186 18 37 32 72 32 79 0 14 41 113 81 194 16 33 43 116
60 184 16 68 39 141 49 161 35 68 126 139 180 139 14 1 69 -15 123 -34z m3595
-1409 c26 -13 66 -27 88 -30 29 -5 59 -22 99 -56 58 -49 114 -70 187 -70 17 0
61 -13 97 -30 36 -16 106 -38 154 -50 115 -26 216 -67 308 -124 65 -41 80 -46
131 -46 47 0 76 -8 166 -50 60 -27 115 -50 123 -50 8 0 27 -11 43 -23 28 -23
29 -25 13 -48 -9 -13 -17 -31 -17 -39 0 -9 -29 -104 -64 -211 -66 -197 -86
-300 -86 -435 0 -33 -3 -63 -6 -66 -3 -4 -21 0 -39 8 -19 8 -45 14 -57 14 -13
0 -40 9 -61 20 -21 11 -68 32 -104 45 -37 14 -87 38 -112 53 -93 57 -296 129
-376 134 -89 5 -135 -2 -152 -22 -14 -16 -30 -20 -78 -20 -41 0 -79 -8 -120
-25 -80 -33 -113 -33 -121 0 -8 34 -34 32 -34 -2 0 -41 -11 -51 -71 -74 -30
-11 -68 -32 -86 -45 -17 -13 -38 -24 -46 -24 -8 0 -22 -9 -32 -20 -10 -11 -26
-20 -35 -20 -10 0 -26 -12 -36 -27 -21 -34 -42 -50 -72 -58 -18 -4 -31 3 -59
32 -30 31 -37 35 -41 21 -2 -10 4 -25 12 -34 19 -19 21 -59 4 -73 -7 -6 -40
-33 -73 -61 -72 -60 -119 -78 -166 -61 -17 6 -35 11 -38 11 -3 0 -6 -28 -6
-62 0 -51 -5 -72 -29 -112 -15 -27 -37 -51 -48 -54 -11 -3 -17 -10 -14 -18 9
-24 -5 -44 -31 -44 -21 0 -23 -3 -14 -14 9 -11 1 -22 -39 -56 -125 -105 -183
-58 -99 81 22 37 55 79 73 93 20 15 36 37 40 56 11 56 39 102 73 123 32 19 33
20 17 38 -16 18 -16 20 1 39 9 10 20 40 23 65 3 31 11 49 23 56 11 5 19 21 19
35 0 54 87 184 124 184 21 0 20 5 -5 39 -24 33 -18 55 22 75 21 10 24 18 21
53 -3 38 -1 43 30 59 43 22 50 35 32 55 -14 15 -13 22 9 66 35 67 58 87 96 78
38 -8 41 8 6 31 -14 9 -25 21 -25 28 0 6 21 58 45 115 25 57 45 112 45 123 0
11 15 41 34 67 18 25 50 78 70 117 39 76 74 104 98 81 16 -16 48 -29 48 -19
-1 4 -15 16 -33 27 -50 32 -48 64 9 125 54 58 73 61 142 26z m-1361 -267 c9
-18 16 -125 22 -325 7 -219 14 -312 25 -349 22 -70 21 -106 -4 -112 -23 -6
-24 -7 -8 -32 19 -30 4 -52 -32 -45 -24 5 -30 3 -30 -11 0 -10 8 -27 17 -37
23 -25 21 -69 -5 -106 -26 -36 -27 -53 -6 -94 13 -25 15 -48 11 -101 -7 -75
-27 -117 -57 -117 -11 0 -35 -13 -53 -30 -37 -32 -65 -37 -99 -19 -17 9 -28 8
-55 -6 -33 -18 -35 -18 -79 4 -40 19 -45 25 -39 44 4 12 8 51 9 87 1 52 8 77
34 125 27 51 33 79 46 193 16 145 30 182 83 218 31 20 31 21 12 45 -23 30 -24
75 -3 125 9 22 20 72 25 111 4 40 18 94 29 120 13 30 27 96 36 173 17 145 30
173 77 168 23 -2 35 -10 44 -29z m740 -2605 c44 -34 73 -81 73 -119 0 -44 -64
-223 -90 -250 -12 -13 -34 -26 -48 -30 -14 -3 -44 -19 -66 -35 -55 -38 -80
-44 -100 -25 -31 31 -19 63 48 133 98 103 116 151 90 243 -13 47 -14 65 -6 84
15 33 55 33 99 -1z m-2993 -490 c20 -20 20 -33 -3 -63 -21 -27 -48 -25 -67 5
-13 18 -12 24 7 47 23 31 41 34 63 11z"/>
<path d="M6823 3024 c-7 -18 17 -38 31 -24 11 11 1 40 -14 40 -6 0 -13 -7 -17
-16z"/>
</g>
</svg>
